<svg xmlns="http://www.w3.org/2000/svg" width="36" height="36" viewBox="0 0 36 36">
  <path id="Icon_simple-microsoftexcel" data-name="Icon simple-microsoftexcel" d="M35.33,4.733H23.269V7.007h3.555v3.6H23.269v1.146h3.555v3.6H23.269v1.178h3.555v3.406H23.269V21.3h3.555v3.413H23.269v1.364h3.555V29.51H23.269v2.5H35.33c.19-.058.349-.287.477-.684A3.405,3.405,0,0,0,36,30.358V5.149c0-.2-.066-.313-.193-.354A1.622,1.622,0,0,0,35.33,4.733ZM33.765,29.506H27.98v-3.43h5.785v3.43Zm0-4.795H27.98V21.3h5.785Zm0-4.779H27.98v-3.39h5.785v3.39Zm0-4.584H27.98v-3.6h5.785v3.6Zm0-4.765H27.98V7.008h5.785v3.575ZM0,4.167v28.42l21.24,3.742v-36L0,4.179Zm12.59,21.5q-.122-.335-1.137-2.846c-.673-1.675-1.08-2.649-1.2-2.927h-.037L7.938,25.415l-3.045-.209L8.505,18.33,5.2,11.455,8.3,11.288l2.052,5.38h.04l2.318-5.624,3.208-.206L12.1,18.278l3.938,7.591-3.449-.206Z" transform="translate(0 -0.329)" fill="#3d6447"/>
</svg>