<svg xmlns="http://www.w3.org/2000/svg" width="37.626" height="32" viewBox="0 0 37.626 32">
  <path id="Icon_awesome-home" data-name="Icon awesome-home" d="M18.313,10.555,6.27,21.4V33.111a1.1,1.1,0,0,0,1.045,1.143l7.319-.021a1.1,1.1,0,0,0,1.04-1.143V26.253A1.1,1.1,0,0,1,16.72,25.11H20.9a1.1,1.1,0,0,1,1.045,1.143v6.832a1.2,1.2,0,0,0,.3.811,1,1,0,0,0,.74.336l7.317.022a1.1,1.1,0,0,0,1.045-1.143V21.395l-12.04-10.84A.744.744,0,0,0,18.313,10.555Zm19.022,7.373-5.461-4.923V3.111a.823.823,0,0,0-.784-.857H27.433a.823.823,0,0,0-.784.857V8.3L20.8,3.036a2.931,2.931,0,0,0-3.984,0L.283,17.928a.913.913,0,0,0-.1,1.207L1.844,21.35a.766.766,0,0,0,.53.309.739.739,0,0,0,.574-.192L18.313,7.626a.744.744,0,0,1,1,0l15.365,13.84a.739.739,0,0,0,1.1-.114l1.666-2.215a.913.913,0,0,0,.174-.63.883.883,0,0,0-.285-.579Z" transform="translate(0.001 -2.254)" fill="#3d6447"/>
</svg>
