<svg id="Logo-DGEyC" xmlns="http://www.w3.org/2000/svg" xmlns:xlink="http://www.w3.org/1999/xlink" width="728.705" height="142.513" viewBox="0 0 728.705 142.513">
  <defs>
    <clipPath id="clip-path">
      <rect id="Rect치ngulo_3" data-name="Rect치ngulo 3" width="728.705" height="142.513" fill="none"/>
    </clipPath>
  </defs>
  <g id="Grupo_2" data-name="Grupo 2">
    <g id="Grupo_1" data-name="Grupo 1" clip-path="url(#clip-path)">
      <path id="Trazado_1" data-name="Trazado 1" d="M450.688,775.625A61.984,61.984,0,0,0,403.779,797.1c-6.51,7.629-9.885,16.875-12.028,27.008-.86,4.091-.456,12.591-.456,12.591v5.371s-3.976,11.693-8.634,16.384a32.018,32.018,0,0,1-32.492,7.8l-.038-.011,37-36.931a65.894,65.894,0,0,1,15.914-36.869,60.734,60.734,0,0,0-43.013-17.681,60.931,60.931,0,0,0-60.819,56c-.139,1.646-.216,3.361-.216,5.073a61.031,61.031,0,0,0,92.3,52.469v9.56h26.913s-.175-60.166-.175-61.182c0-17.653,15.108-31.962,32.781-31.962,8.76,0,19.032,3.539,23.259,9.265V779.94c-6.335-2.78-15.447-4.314-23.385-4.314m-122.643,60.2a30.781,30.781,0,0,1,.423-5.073,31.914,31.914,0,0,1,31.56-26.929,32.284,32.284,0,0,1,9.877,1.551L329.6,845.652a32.138,32.138,0,0,1-1.551-9.822" transform="translate(-298.993 -757.312)" fill="#9c9c9a"/>
      <path id="Trazado_2" data-name="Trazado 2" d="M365.014,783.432a66.328,66.328,0,0,1,15.614,1.862c.008-.18.046-.385.049-.584a15.9,15.9,0,0,0-31.8-.724c-.014.462.049.934.079,1.415a66.822,66.822,0,0,1,16.059-1.969" transform="translate(-212.669 -768.237)" fill="#3d6146"/>
      <path id="Trazado_3" data-name="Trazado 3" d="M370.6,778.837h6.925a12.783,12.783,0,0,1,3.907.645,11.029,11.029,0,0,1,3.539,1.969,9.777,9.777,0,0,1,2.559,3.271,11.087,11.087,0,0,1,0,9.1,9.772,9.772,0,0,1-2.559,3.263,10.442,10.442,0,0,1-3.539,1.969,12.543,12.543,0,0,1-3.907.645H370.6Zm2.13,18.978h4.205a10.512,10.512,0,0,0,4.112-.737,8.618,8.618,0,0,0,2.908-1.922,7.848,7.848,0,0,0,1.723-2.733,8.751,8.751,0,0,0,0-6.3,8.119,8.119,0,0,0-1.723-2.736,8.61,8.61,0,0,0-2.908-1.92,10.46,10.46,0,0,0-4.112-.743H372.73Z" transform="translate(-175.07 -750.251)" fill="#1d1e1c"/>
      <path id="Trazado_4" data-name="Trazado 4" d="M381.419,780.374a1.329,1.329,0,0,1-.44,1.016,1.463,1.463,0,0,1-.983.4,1.43,1.43,0,0,1-.967-.4,1.4,1.4,0,0,1,0-2.029,1.439,1.439,0,0,1,.967-.393,1.473,1.473,0,0,1,.983.393,1.336,1.336,0,0,1,.44,1.013m-.418,19.1h-2.007v-13.8H381Z" transform="translate(-161.237 -750.024)" fill="#1d1e1c"/>
      <path id="Trazado_5" data-name="Trazado 5" d="M381.462,783.248c-.022-.6-.041-1.122-.071-1.6H383.3c.03.371.06.8.1,1.242.014.462.022.836.022,1.12h.052a4.894,4.894,0,0,1,4.437-2.714c.251,0,.472.027.68.044a2.375,2.375,0,0,1,.631.117l-.262,1.909a4.209,4.209,0,0,0-.6-.117,7.321,7.321,0,0,0-.811-.066,3.891,3.891,0,0,0-1.54.3,3.273,3.273,0,0,0-1.289.915,5.52,5.52,0,0,0-.887,1.622,7.575,7.575,0,0,0-.336,2.373v7.051h-1.988v-10.77c0-.363-.019-.83-.046-1.428" transform="translate(-156.395 -745.995)" fill="#1d1e1c"/>
      <path id="Trazado_6" data-name="Trazado 6" d="M398.315,788.141v.434c0,.172-.005.328-.019.5H386.86a5.315,5.315,0,0,0,.4,1.958,5.129,5.129,0,0,0,1.054,1.6,5.284,5.284,0,0,0,1.595,1.06,5.37,5.37,0,0,0,4.667-.306,5.532,5.532,0,0,0,1.737-1.687l1.5,1.2a7.145,7.145,0,0,1-5.92,2.913,7.335,7.335,0,0,1-2.854-.538,6.678,6.678,0,0,1-2.258-1.513,7.755,7.755,0,0,1-1.5-2.321,7.644,7.644,0,0,1-.535-2.889,7.75,7.75,0,0,1,.527-2.886,7.051,7.051,0,0,1,1.483-2.294,6.97,6.97,0,0,1,2.2-1.513,6.834,6.834,0,0,1,2.742-.557,6.926,6.926,0,0,1,2.859.557,6.041,6.041,0,0,1,2.081,1.48,6.47,6.47,0,0,1,1.253,2.16,8.079,8.079,0,0,1,.412,2.649m-2.026-.642a5.069,5.069,0,0,0-1.253-3.238,4.237,4.237,0,0,0-3.326-1.275,4.544,4.544,0,0,0-1.843.369,4.36,4.36,0,0,0-1.5,1.005,4.69,4.69,0,0,0-1.046,1.431,4.512,4.512,0,0,0-.44,1.709Z" transform="translate(-150.573 -745.995)" fill="#1d1e1c"/>
      <path id="Trazado_7" data-name="Trazado 7" d="M401.872,784.8a3.8,3.8,0,0,0-1.453-1.3,4.251,4.251,0,0,0-2.089-.513,5.448,5.448,0,0,0-2.171.418,5.025,5.025,0,0,0-1.66,1.2,4.966,4.966,0,0,0-1.076,1.764,6.65,6.65,0,0,0,0,4.383,5.7,5.7,0,0,0,1.046,1.756,4.643,4.643,0,0,0,1.666,1.169,5.5,5.5,0,0,0,2.171.412,4.543,4.543,0,0,0,2.247-.5,4.325,4.325,0,0,0,1.5-1.286l1.5,1.12a6.388,6.388,0,0,1-5.254,2.389,7.984,7.984,0,0,1-3.031-.535,7.022,7.022,0,0,1-2.324-1.516,7.189,7.189,0,0,1-1.488-2.321,7.858,7.858,0,0,1-.535-2.886,7.993,7.993,0,0,1,.535-2.889,6.7,6.7,0,0,1,1.488-2.291,6.935,6.935,0,0,1,2.324-1.516,7.983,7.983,0,0,1,3.031-.557,7.3,7.3,0,0,1,2.813.6,5.593,5.593,0,0,1,2.321,1.789Z" transform="translate(-139.89 -745.995)" fill="#1d1e1c"/>
      <path id="Trazado_8" data-name="Trazado 8" d="M407.265,784.8a3.984,3.984,0,0,0-1.469-1.3,4.137,4.137,0,0,0-2.059-.513,5.534,5.534,0,0,0-2.2.418,5.3,5.3,0,0,0-1.655,1.2,4.657,4.657,0,0,0-1.051,1.764,6.7,6.7,0,0,0,0,4.383,5.067,5.067,0,0,0,1.038,1.756,4.731,4.731,0,0,0,1.644,1.169,5.53,5.53,0,0,0,2.182.412,4.475,4.475,0,0,0,2.239-.5,4.384,4.384,0,0,0,1.5-1.286l1.5,1.12a6.422,6.422,0,0,1-2.16,1.745,6.978,6.978,0,0,1-3.086.644,8.055,8.055,0,0,1-3.039-.535,6.843,6.843,0,0,1-2.3-1.516,7.441,7.441,0,0,1-1.494-2.321,7.532,7.532,0,0,1-.524-2.886,7.655,7.655,0,0,1,.524-2.889,6.921,6.921,0,0,1,1.494-2.291,6.76,6.76,0,0,1,2.3-1.516,8.056,8.056,0,0,1,3.039-.557,7.33,7.33,0,0,1,2.821.6,5.408,5.408,0,0,1,2.3,1.789Z" transform="translate(-130.538 -745.995)" fill="#1d1e1c"/>
      <path id="Trazado_9" data-name="Trazado 9" d="M404.8,780.374a1.309,1.309,0,0,1-.459,1.016,1.431,1.431,0,0,1-.98.4,1.411,1.411,0,0,1-.95-.4,1.356,1.356,0,0,1,0-2.029,1.42,1.42,0,0,1,.95-.393,1.441,1.441,0,0,1,.98.393,1.316,1.316,0,0,1,.459,1.013m-.434,19.1h-2.007v-13.8h2.007Z" transform="translate(-120.809 -750.024)" fill="#1d1e1c"/>
      <path id="Trazado_10" data-name="Trazado 10" d="M419.138,792.8a7.258,7.258,0,0,1-2.053,5.21,7.309,7.309,0,0,1-2.343,1.516,7.852,7.852,0,0,1-2.987.535,7.713,7.713,0,0,1-2.93-.535,7.236,7.236,0,0,1-2.346-1.516,7.775,7.775,0,0,1-1.515-8.1,7.017,7.017,0,0,1,1.515-2.294,7.229,7.229,0,0,1,2.346-1.515,7.718,7.718,0,0,1,2.93-.554,7.852,7.852,0,0,1,2.987.554,7.3,7.3,0,0,1,2.343,1.515,7.02,7.02,0,0,1,1.518,2.294,7.59,7.59,0,0,1,.535,2.886m-2.127,0a6.244,6.244,0,0,0-.371-2.16,5.086,5.086,0,0,0-2.681-2.974,5.414,5.414,0,0,0-2.2-.429,5.263,5.263,0,0,0-2.157.429,5.57,5.57,0,0,0-1.636,1.21,5.4,5.4,0,0,0-1.038,1.764,6.178,6.178,0,0,0-.371,2.16,6.47,6.47,0,0,0,.371,2.19,5.441,5.441,0,0,0,1.038,1.767,4.855,4.855,0,0,0,1.636,1.169,5.4,5.4,0,0,0,2.157.412,5.554,5.554,0,0,0,2.2-.412,4.806,4.806,0,0,0,1.644-1.169,5.592,5.592,0,0,0,1.038-1.767,6.541,6.541,0,0,0,.371-2.19m-4.7-9.713h-1.742l2.935-4.249h2.7Z" transform="translate(-116.527 -750.249)" fill="#1d1e1c"/>
      <path id="Trazado_11" data-name="Trazado 11" d="M413.273,781.648c.03.371.052.805.071,1.242.044.462.049.836.049,1.12h.044a4.529,4.529,0,0,1,1.909-1.961,5.57,5.57,0,0,1,2.823-.754,4.853,4.853,0,0,1,3.924,1.57A6.184,6.184,0,0,1,423.4,787v8.449H421.41v-7.64a9.679,9.679,0,0,0-.188-1.952,3.718,3.718,0,0,0-.612-1.516,2.733,2.733,0,0,0-1.141-.994,4.107,4.107,0,0,0-1.8-.358,4.343,4.343,0,0,0-1.57.309,4.054,4.054,0,0,0-1.319.989,5.2,5.2,0,0,0-.958,1.7,7.1,7.1,0,0,0-.36,2.4v7.064h-2v-10.77c0-.363-.008-.83-.025-1.428s-.038-1.122-.085-1.6Z" transform="translate(-104.551 -745.995)" fill="#1d1e1c"/>
      <path id="Trazado_12" data-name="Trazado 12" d="M436.95,782.94a7.569,7.569,0,0,0-2.605-1.775,8.409,8.409,0,0,0-3.43-.634,8.52,8.52,0,0,0-3.621.74,8.049,8.049,0,0,0-2.736,1.963,9.066,9.066,0,0,0-1.734,2.906,10.242,10.242,0,0,0,0,6.958,8.7,8.7,0,0,0,1.734,2.884,8.475,8.475,0,0,0,2.736,1.98,8.9,8.9,0,0,0,3.621.71,12.7,12.7,0,0,0,3.217-.38,7.946,7.946,0,0,0,2.387-.953v-6.352h-4.847V789.1h6.974v9.429a12.7,12.7,0,0,1-3.675,1.529,16.316,16.316,0,0,1-4.11.5,11.448,11.448,0,0,1-4.342-.805,11.11,11.11,0,0,1-3.465-2.28,10.194,10.194,0,0,1-2.255-3.479,11.775,11.775,0,0,1-.8-4.394,11.6,11.6,0,0,1,.811-4.391,10.885,10.885,0,0,1,2.275-3.463,11.044,11.044,0,0,1,3.465-2.291,11.261,11.261,0,0,1,4.309-.811,11.541,11.541,0,0,1,4.369.751,9.254,9.254,0,0,1,3.173,2.065Z" transform="translate(-89.576 -750.583)" fill="#1d1e1c"/>
      <path id="Trazado_13" data-name="Trazado 13" d="M441.941,788.141v.434c0,.172-.005.328-.022.5H430.483a5.458,5.458,0,0,0,1.48,3.558,5.441,5.441,0,0,0,1.606,1.06,4.9,4.9,0,0,0,1.952.393,5.058,5.058,0,0,0,2.712-.7,5.521,5.521,0,0,0,1.734-1.687l1.483,1.2a7.573,7.573,0,0,1-2.717,2.245,7.947,7.947,0,0,1-3.211.669,7.2,7.2,0,0,1-2.823-.538,6.706,6.706,0,0,1-2.258-1.513,7.642,7.642,0,0,1-1.494-2.321,7.386,7.386,0,0,1-.532-2.889,7.585,7.585,0,0,1,.522-2.886,7.042,7.042,0,0,1,1.48-2.294,6.725,6.725,0,0,1,2.2-1.513,6.856,6.856,0,0,1,2.744-.557,7.039,7.039,0,0,1,2.867.557,5.9,5.9,0,0,1,2.051,1.48,6.177,6.177,0,0,1,1.281,2.16,8.011,8.011,0,0,1,.388,2.649m-2.029-.642a4.8,4.8,0,0,0-1.251-3.238,4.233,4.233,0,0,0-3.307-1.275,4.741,4.741,0,0,0-1.862.369,4.974,4.974,0,0,0-2.529,2.436,5.387,5.387,0,0,0-.461,1.709Z" transform="translate(-75.018 -745.995)" fill="#1d1e1c"/>
      <path id="Trazado_14" data-name="Trazado 14" d="M436.844,781.648c.03.371.049.805.068,1.242.014.462.022.836.022,1.12h.044a4.644,4.644,0,0,1,1.942-1.961,5.375,5.375,0,0,1,2.791-.754,4.964,4.964,0,0,1,3.954,1.57,6.344,6.344,0,0,1,1.3,4.131v8.449h-2.007v-7.64a7.9,7.9,0,0,0-.194-1.952,3.7,3.7,0,0,0-.582-1.516,2.775,2.775,0,0,0-1.174-.994,4.021,4.021,0,0,0-1.8-.358,4.277,4.277,0,0,0-1.54.309,3.8,3.8,0,0,0-1.322.989,4.751,4.751,0,0,0-.956,1.7,7.127,7.127,0,0,0-.388,2.4v7.064h-2v-10.77c0-.363-.006-.83-.025-1.428s-.038-1.122-.066-1.6Z" transform="translate(-63.778 -745.995)" fill="#1d1e1c"/>
      <path id="Trazado_15" data-name="Trazado 15" d="M454.421,788.141v.434c0,.172-.005.328-.022.5H442.936a5.336,5.336,0,0,0,.434,1.958,4.76,4.76,0,0,0,1.049,1.6,5.613,5.613,0,0,0,1.573,1.06,5.423,5.423,0,0,0,4.691-.306,5.806,5.806,0,0,0,1.737-1.687l1.5,1.2a8.053,8.053,0,0,1-2.733,2.245,7.847,7.847,0,0,1-3.214.669,7.114,7.114,0,0,1-2.826-.538,6.183,6.183,0,0,1-2.258-1.513,6.735,6.735,0,0,1-1.494-2.321,6.968,6.968,0,0,1-.532-2.889,7.1,7.1,0,0,1,.521-2.886,6.2,6.2,0,0,1,1.485-2.294,6.588,6.588,0,0,1,2.163-1.513,7.416,7.416,0,0,1,5.641,0,5.921,5.921,0,0,1,2.051,1.48,6,6,0,0,1,1.253,2.16,8.075,8.075,0,0,1,.442,2.649m-2.029-.642a5.235,5.235,0,0,0-1.251-3.238,4.309,4.309,0,0,0-3.361-1.275,4.6,4.6,0,0,0-1.835.369,5.036,5.036,0,0,0-1.507,1.005,4.566,4.566,0,0,0-1.021,1.431,4.641,4.641,0,0,0-.459,1.709Z" transform="translate(-53.472 -745.995)" fill="#1d1e1c"/>
      <path id="Trazado_16" data-name="Trazado 16" d="M447.475,783.248a10.325,10.325,0,0,0-.128-1.6h1.939c.03.371.052.8.071,1.242.014.462.025.836.025,1.12h.1a4.877,4.877,0,0,1,4.388-2.714c.254,0,.489.027.7.044a2.729,2.729,0,0,1,.663.117l-.262,1.909c-.15-.027-.358-.088-.628-.117a7.276,7.276,0,0,0-.808-.066,3.892,3.892,0,0,0-1.526.3,3.022,3.022,0,0,0-1.278.915,4.752,4.752,0,0,0-.909,1.622,7.149,7.149,0,0,0-.322,2.373v7.051h-2v-10.77c0-.363-.005-.83-.022-1.428" transform="translate(-42.251 -745.995)" fill="#1d1e1c"/>
      <path id="Trazado_17" data-name="Trazado 17" d="M460.473,786.52a3.545,3.545,0,0,0-.9-2.657,3.961,3.961,0,0,0-2.744-.877,5.689,5.689,0,0,0-2.288.429,5.894,5.894,0,0,0-1.849,1.193L451.6,783.27a6.535,6.535,0,0,1,2.255-1.406,8.522,8.522,0,0,1,3.168-.568,6.8,6.8,0,0,1,2.1.32,5.629,5.629,0,0,1,1.72.915,4.27,4.27,0,0,1,1.117,1.581,5.526,5.526,0,0,1,.431,2.193v6.067c0,.522.016,1.065.049,1.647a9.493,9.493,0,0,0,.188,1.428h-1.786a4.771,4.771,0,0,1-.172-1.071c-.03-.42-.044-.8-.044-1.174h-.046a5.951,5.951,0,0,1-2.165,1.993,6.289,6.289,0,0,1-2.848.612,6.739,6.739,0,0,1-1.666-.229,4.343,4.343,0,0,1-2.7-2.021,3.947,3.947,0,0,1-.41-1.939,3.8,3.8,0,0,1,.8-2.553,5.1,5.1,0,0,1,2.13-1.387,12.5,12.5,0,0,1,3.143-.571c1.193-.1,2.356-.131,3.615-.131Zm-.574,2.026c-.805,0-1.679.057-2.493.109a14.111,14.111,0,0,0-2.269.407,4.163,4.163,0,0,0-1.685.923,2.11,2.11,0,0,0-.617,1.548,2.383,2.383,0,0,0,.273,1.242,2.467,2.467,0,0,0,.756.8,3.226,3.226,0,0,0,1.035.456,5.094,5.094,0,0,0,1.188.131,4.322,4.322,0,0,0,1.854-.372,4.7,4.7,0,0,0,1.414-1,4.89,4.89,0,0,0,.83-1.469,4.79,4.79,0,0,0,.287-1.745v-1.027Z" transform="translate(-36.297 -745.995)" fill="#1d1e1c"/>
      <rect id="Rect치ngulo_1" data-name="Rect치ngulo 1" width="2.005" height="22.271" transform="translate(431.319 27.179)" fill="#1d1e1c"/>
      <path id="Trazado_18" data-name="Trazado 18" d="M474.366,798.28a6.023,6.023,0,0,1-2.348,2,6.568,6.568,0,0,1-2.881.669,7.568,7.568,0,0,1-2.952-.546,7.171,7.171,0,0,1-2.25-1.556,8.182,8.182,0,0,1-1.453-2.291,8.274,8.274,0,0,1-.516-2.867,8.412,8.412,0,0,1,.516-2.864,8.14,8.14,0,0,1,1.453-2.291,7.1,7.1,0,0,1,5.2-2.094,6.2,6.2,0,0,1,2.881.7,6.137,6.137,0,0,1,2.348,2.04h.046V778.322h2v22.271h-2V798.28Zm-10.242-4.588a6.688,6.688,0,0,0,.328,2.187,6.341,6.341,0,0,0,1.016,1.77,4.541,4.541,0,0,0,1.663,1.169,5.4,5.4,0,0,0,2.22.412,5.2,5.2,0,0,0,2.1-.412,4.98,4.98,0,0,0,1.7-1.158,5.183,5.183,0,0,0,1.081-1.756,6.063,6.063,0,0,0,.421-2.212,5.9,5.9,0,0,0-.421-2.179,5.04,5.04,0,0,0-1.081-1.769,5.4,5.4,0,0,0-1.7-1.193,5.158,5.158,0,0,0-2.1-.418,5.215,5.215,0,0,0-2.22.429,5.05,5.05,0,0,0-1.663,1.207,5.706,5.706,0,0,0-1.343,3.924" transform="translate(-16.951 -751.142)" fill="#1d1e1c"/>
      <path id="Trazado_19" data-name="Trazado 19" d="M482.408,788.141v.434c0,.172-.008.328-.022.5H470.978a5.355,5.355,0,0,0,.377,1.958,5.827,5.827,0,0,0,1.049,1.6,5.174,5.174,0,0,0,1.633,1.06,4.856,4.856,0,0,0,1.98.393,4.914,4.914,0,0,0,2.654-.7,5.2,5.2,0,0,0,1.737-1.687l1.5,1.2a7.579,7.579,0,0,1-2.736,2.245,7.776,7.776,0,0,1-3.157.669,7.6,7.6,0,0,1-2.884-.538,7.424,7.424,0,0,1-2.258-1.513,9.12,9.12,0,0,1-1.494-2.321,8.033,8.033,0,0,1-.532-2.889,8.274,8.274,0,0,1,.522-2.886,8.137,8.137,0,0,1,1.485-2.294,7.476,7.476,0,0,1,2.223-1.513,6.752,6.752,0,0,1,2.744-.557,6.884,6.884,0,0,1,2.837.557,5.947,5.947,0,0,1,2.094,1.48,6.326,6.326,0,0,1,1.248,2.16,7.607,7.607,0,0,1,.407,2.649m-2.029-.642a4.912,4.912,0,0,0-1.253-3.238,4.173,4.173,0,0,0-3.3-1.275,4.556,4.556,0,0,0-1.851.369,4.219,4.219,0,0,0-1.51,1.005,5.005,5.005,0,0,0-1.054,1.431A4.467,4.467,0,0,0,471,787.5Z" transform="translate(-5.041 -745.995)" fill="#1d1e1c"/>
      <path id="Trazado_20" data-name="Trazado 20" d="M379.673,817.235h.021l6.2-15.347h2.877v18.55h-1.887V804.283h-.039l-6.716,16.155h-1l-6.707-16.155h-.039v16.155h-1.9v-18.55h2.881Z" transform="translate(-175.266 -710.358)" fill="#1d1e1c"/>
      <path id="Trazado_21" data-name="Trazado 21" d="M381.339,803.255a1.052,1.052,0,0,1-.391.866,1.16,1.16,0,0,1-1.737,0,1.046,1.046,0,0,1-.382-.866,1.17,1.17,0,0,1,.382-.928,1.314,1.314,0,0,1,1.737,0,1.176,1.176,0,0,1,.391.928m-.369,16.99H379.2V807.982h1.775Z" transform="translate(-160.827 -710.166)" fill="#1d1e1c"/>
      <path id="Trazado_22" data-name="Trazado 22" d="M383.031,804.417c.027.314.047.653.057,1.079.027.426.033.74.033,1h.057a4.1,4.1,0,0,1,1.7-1.748,4.88,4.88,0,0,1,2.488-.688,4.245,4.245,0,0,1,3.5,1.417,5.483,5.483,0,0,1,1.169,3.692v7.515h-1.786v-6.835a9.256,9.256,0,0,0-.15-1.756,3.961,3.961,0,0,0-.527-1.327,2.433,2.433,0,0,0-1.024-.852,3.63,3.63,0,0,0-1.614-.355,3.458,3.458,0,0,0-1.376.325,2.7,2.7,0,0,0-1.2.863,4.476,4.476,0,0,0-.825,1.5,6.107,6.107,0,0,0-.328,2.1v6.338h-1.772v-9.609c0-.311-.008-.759-.022-1.275-.03-.521-.057-1-.09-1.382Z" transform="translate(-156.53 -706.601)" fill="#1d1e1c"/>
      <path id="Trazado_23" data-name="Trazado 23" d="M389.312,803.255a1.05,1.05,0,0,1-.388.866,1.288,1.288,0,0,1-.866.391,1.256,1.256,0,0,1-.849-.391,1.021,1.021,0,0,1-.407-.866,1.138,1.138,0,0,1,.407-.928,1.193,1.193,0,0,1,.849-.328,1.227,1.227,0,0,1,.866.328,1.174,1.174,0,0,1,.388.928m-.347,16.99h-1.794V807.982h1.794Z" transform="translate(-147.029 -710.166)" fill="#1d1e1c"/>
      <path id="Trazado_24" data-name="Trazado 24" d="M396.707,807.292a3.56,3.56,0,0,0-1.182-1.245,3.6,3.6,0,0,0-1.838-.489,4.683,4.683,0,0,0-.931.139,2.709,2.709,0,0,0-.846.317,2.388,2.388,0,0,0-.59.639,1.522,1.522,0,0,0-.21.838,1.5,1.5,0,0,0,.688,1.308,7.5,7.5,0,0,0,2.236.767,8.347,8.347,0,0,1,3.222,1.292,3,3,0,0,1,1.029,2.34,3.782,3.782,0,0,1-.4,1.767,3.268,3.268,0,0,1-1.079,1.139,3.846,3.846,0,0,1-1.477.68,6.541,6.541,0,0,1-1.666.207,6.265,6.265,0,0,1-2.684-.617,4.466,4.466,0,0,1-2.149-1.8l1.412-1.038a3.887,3.887,0,0,0,3.4,1.933,3.64,3.64,0,0,0,1.106-.137,2.051,2.051,0,0,0,.912-.341,2.236,2.236,0,0,0,.625-.688,1.977,1.977,0,0,0,.24-1.008,1.66,1.66,0,0,0-.937-1.466,12.83,12.83,0,0,0-2.684-.868c-.371-.126-.756-.21-1.158-.369a3.169,3.169,0,0,1-1.139-.56,2.867,2.867,0,0,1-.871-.967,2.563,2.563,0,0,1-.347-1.4,3.422,3.422,0,0,1,.369-1.647,3.087,3.087,0,0,1,.988-1.079,5.245,5.245,0,0,1,1.4-.666,7.944,7.944,0,0,1,1.627-.221,5.468,5.468,0,0,1,2.5.617,3.727,3.727,0,0,1,1.794,1.6Z" transform="translate(-143.518 -706.601)" fill="#1d1e1c"/>
      <path id="Trazado_25" data-name="Trazado 25" d="M400.546,807.886H397.1v7.127a4.029,4.029,0,0,0,.131,1.155,1.056,1.056,0,0,0,.377.653,1.7,1.7,0,0,0,.571.379,3.994,3.994,0,0,0,.737.068,4.107,4.107,0,0,0,.773-.079c.273-.115.546-.186.776-.281l.079,1.537a6.058,6.058,0,0,1-.988.27,7.8,7.8,0,0,1-1.106.068,5.8,5.8,0,0,1-1.049-.1,3.089,3.089,0,0,1-1.016-.5,2.943,2.943,0,0,1-.77-1,3.8,3.8,0,0,1-.309-1.677v-7.627h-2.548v-1.494h2.548v-3.473H397.1v3.473h3.443Z" transform="translate(-136.718 -708.574)" fill="#1d1e1c"/>
      <path id="Trazado_26" data-name="Trazado 26" d="M408.356,810.185v.361c0,.166-.011.279-.019.456H398.165a4.772,4.772,0,0,0,.371,1.737,3.9,3.9,0,0,0,.939,1.376,4.667,4.667,0,0,0,3.181,1.36,4.306,4.306,0,0,0,2.4-.669,5.438,5.438,0,0,0,1.524-1.488l1.349,1.038a6.21,6.21,0,0,1-2.447,2,6.376,6.376,0,0,1-2.823.639,6.844,6.844,0,0,1-2.534-.489,5.05,5.05,0,0,1-2-1.384,6.3,6.3,0,0,1-1.335-2.037,6.5,6.5,0,0,1-.486-2.556,6.626,6.626,0,0,1,.478-2.553,6.072,6.072,0,0,1,1.3-2.037,6.269,6.269,0,0,1,1.971-1.384,6.357,6.357,0,0,1,2.439-.489,6.579,6.579,0,0,1,2.55.489,5.124,5.124,0,0,1,1.819,1.354,5.272,5.272,0,0,1,1.117,1.887,7.386,7.386,0,0,1,.38,2.395m-1.8-.617a4.549,4.549,0,0,0-1.117-2.845,3.789,3.789,0,0,0-2.952-1.166,4.075,4.075,0,0,0-1.66.366,4.936,4.936,0,0,0-1.316.86,5,5,0,0,0-.942,1.278,4.368,4.368,0,0,0-.385,1.507Z" transform="translate(-130.588 -706.599)" fill="#1d1e1c"/>
      <path id="Trazado_27" data-name="Trazado 27" d="M402.154,805.8c-.025-.516-.044-1-.071-1.379h1.7a9.528,9.528,0,0,1,.076,1.079c.014.429.025.737.025,1h.065a4.349,4.349,0,0,1,3.921-2.433,1.6,1.6,0,0,1,.62.082,3.6,3.6,0,0,1,.552.079l-.21,1.715a3.434,3.434,0,0,0-.549-.139,6.487,6.487,0,0,0-.729-.041,3.316,3.316,0,0,0-1.349.259,3.112,3.112,0,0,0-1.139.808,5.046,5.046,0,0,0-.805,1.453,6.928,6.928,0,0,0-.289,2.141v6.267h-1.778v-9.609c0-.314-.005-.762-.038-1.278" transform="translate(-120.585 -706.601)" fill="#1d1e1c"/>
      <path id="Trazado_28" data-name="Trazado 28" d="M407.964,803.255a1.045,1.045,0,0,1-.39.866,1.268,1.268,0,0,1-.868.391,1.327,1.327,0,0,1-.868-.391,1.05,1.05,0,0,1-.388-.866,1.174,1.174,0,0,1,.388-.928A1.26,1.26,0,0,1,406.7,802a1.211,1.211,0,0,1,.868.328,1.167,1.167,0,0,1,.39.928m-.371,16.99h-1.775V807.982h1.775Z" transform="translate(-114.76 -710.166)" fill="#1d1e1c"/>
      <path id="Trazado_29" data-name="Trazado 29" d="M420.719,810.525a6.209,6.209,0,0,1-.489,2.553,6.007,6.007,0,0,1-1.327,2.04,5.691,5.691,0,0,1-2.081,1.384,7.348,7.348,0,0,1-5.27,0,5.322,5.322,0,0,1-2.056-1.384,5.628,5.628,0,0,1-1.357-2.04,6.878,6.878,0,0,1,0-5.106,5.573,5.573,0,0,1,1.357-2.037,6,6,0,0,1,2.056-1.384,7.307,7.307,0,0,1,5.27,0,6.467,6.467,0,0,1,2.081,1.384,5.944,5.944,0,0,1,1.327,2.037,6.209,6.209,0,0,1,.489,2.553m-1.887,0a5.957,5.957,0,0,0-.325-1.947,4.977,4.977,0,0,0-.928-1.557,4.053,4.053,0,0,0-1.477-1.048,4.546,4.546,0,0,0-1.928-.415,4.446,4.446,0,0,0-1.914.415,4.025,4.025,0,0,0-1.464,1.048,4.717,4.717,0,0,0-.923,1.557,5.758,5.758,0,0,0,0,3.891,4.635,4.635,0,0,0,.923,1.557,3.917,3.917,0,0,0,1.464,1.04,4.569,4.569,0,0,0,1.914.409,4.672,4.672,0,0,0,1.928-.409,3.945,3.945,0,0,0,1.477-1.04,4.886,4.886,0,0,0,.928-1.557,5.928,5.928,0,0,0,.325-1.944" transform="translate(-110.954 -706.601)" fill="#1d1e1c"/>
      <path id="Trazado_30" data-name="Trazado 30" d="M426.88,819.131a4.692,4.692,0,0,1-2.037,1.775,5.722,5.722,0,0,1-2.6.639,7.082,7.082,0,0,1-2.608-.5,5.808,5.808,0,0,1-1.969-1.4,6.1,6.1,0,0,1-1.308-2.037,7.522,7.522,0,0,1,0-5.068,6.049,6.049,0,0,1,1.308-2.037,6.719,6.719,0,0,1,1.969-1.4,7.082,7.082,0,0,1,2.608-.5,5.635,5.635,0,0,1,2.6.65,4.71,4.71,0,0,1,2.037,1.805h.068v-9.639h1.778v19.808h-1.778v-2.105Zm-9.082-4.052a6.549,6.549,0,0,0,.3,1.944,5.173,5.173,0,0,0,.9,1.557,4.1,4.1,0,0,0,1.469,1.04,4.936,4.936,0,0,0,1.974.409,4.862,4.862,0,0,0,3.383-1.439,4.626,4.626,0,0,0,.958-1.546,5.583,5.583,0,0,0,0-3.932,4.852,4.852,0,0,0-.958-1.559,4.761,4.761,0,0,0-5.357-1.027A4.214,4.214,0,0,0,419,811.575a5.276,5.276,0,0,0-.9,1.557,6.582,6.582,0,0,0-.3,1.947" transform="translate(-96.649 -711.154)" fill="#1d1e1c"/>
      <path id="Trazado_31" data-name="Trazado 31" d="M434.081,810.185v.361c0,.166-.005.279-.019.456H423.89a5.382,5.382,0,0,0,.344,1.737,4.088,4.088,0,0,0,.956,1.376,4.237,4.237,0,0,0,1.4.969,4.362,4.362,0,0,0,1.761.39,4.184,4.184,0,0,0,2.395-.669,5.114,5.114,0,0,0,1.551-1.488l1.322,1.038a6.167,6.167,0,0,1-2.414,2,6.513,6.513,0,0,1-2.854.639,6.822,6.822,0,0,1-2.526-.489,5.453,5.453,0,0,1-2.007-1.384,6.276,6.276,0,0,1-1.308-2.037,6.358,6.358,0,0,1-.486-2.556,7,7,0,0,1,.448-2.553,6.094,6.094,0,0,1,1.327-2.037,6,6,0,0,1,1.977-1.384,6.3,6.3,0,0,1,2.425-.489,6.432,6.432,0,0,1,2.531.489,5.6,5.6,0,0,1,2.968,3.241,7.389,7.389,0,0,1,.377,2.395m-1.827-.617a4.3,4.3,0,0,0-1.117-2.845,3.742,3.742,0,0,0-2.933-1.166,3.956,3.956,0,0,0-1.649.366,5.154,5.154,0,0,0-1.346.86,4.879,4.879,0,0,0-.909,1.278,3.939,3.939,0,0,0-.39,1.507Z" transform="translate(-86.068 -706.599)" fill="#1d1e1c"/>
      <path id="Trazado_32" data-name="Trazado 32" d="M432.164,818.752h9.953v1.686H430.275v-18.55h11.485v1.639h-9.6v6.4h9v1.637h-9Z" transform="translate(-71.796 -710.358)" fill="#1d1e1c"/>
      <path id="Trazado_33" data-name="Trazado 33" d="M445.324,807.21a3.283,3.283,0,0,0-1.286-1.185,3.982,3.982,0,0,0-1.827-.467,4.8,4.8,0,0,0-1.955.407A4.608,4.608,0,0,0,438.768,807a4.834,4.834,0,0,0-.958,1.562,5.7,5.7,0,0,0-.306,1.963,5.633,5.633,0,0,0,.306,1.955,4.759,4.759,0,0,0,.953,1.548,4.416,4.416,0,0,0,1.475,1.038,4.784,4.784,0,0,0,1.955.407,4.443,4.443,0,0,0,2-.456,4.364,4.364,0,0,0,1.316-1.177l1.316,1a4.8,4.8,0,0,1-1.944,1.534,5.513,5.513,0,0,1-2.684.617,7.679,7.679,0,0,1-2.714-.486,5.264,5.264,0,0,1-2.045-1.39,6.107,6.107,0,0,1-1.368-2.037,7.022,7.022,0,0,1,0-5.106,6.107,6.107,0,0,1,1.368-2.037,5.956,5.956,0,0,1,2.045-1.384,7.494,7.494,0,0,1,2.714-.492,6.1,6.1,0,0,1,2.5.59,4.594,4.594,0,0,1,2.043,1.567Z" transform="translate(-62.608 -706.601)" fill="#1d1e1c"/>
      <path id="Trazado_34" data-name="Trazado 34" d="M453.472,810.525a6.846,6.846,0,0,1-.489,2.553,6.537,6.537,0,0,1-3.441,3.424,7.34,7.34,0,0,1-5.267,0,5.353,5.353,0,0,1-2.059-1.384,6.043,6.043,0,0,1-1.324-2.04,6.878,6.878,0,0,1,0-5.106,6.143,6.143,0,0,1,3.383-3.421,7.3,7.3,0,0,1,5.267,0,6.069,6.069,0,0,1,2.053,1.384,5.324,5.324,0,0,1,1.387,2.037,6.845,6.845,0,0,1,.489,2.553m-1.914,0a5.607,5.607,0,0,0-.311-1.947,4.876,4.876,0,0,0-.947-1.557,3.613,3.613,0,0,0-1.475-1.048,4.4,4.4,0,0,0-1.9-.415,4.652,4.652,0,0,0-3.416,1.464,6.183,6.183,0,0,0-.947,1.557,6.286,6.286,0,0,0,0,3.891,6.041,6.041,0,0,0,.947,1.557,4.5,4.5,0,0,0,1.466,1.04,4.738,4.738,0,0,0,1.95.409,4.517,4.517,0,0,0,1.9-.409,3.527,3.527,0,0,0,1.475-1.04,4.788,4.788,0,0,0,.947-1.557,5.581,5.581,0,0,0,.311-1.944" transform="translate(-54.271 -706.601)" fill="#1d1e1c"/>
      <path id="Trazado_35" data-name="Trazado 35" d="M448.214,804.417a5.866,5.866,0,0,1,.12,1.079c.011.426.019.74.019,1h.041a4,4,0,0,1,1.715-1.748,4.78,4.78,0,0,1,2.5-.688,4.278,4.278,0,0,1,3.5,1.417,5.54,5.54,0,0,1,1.128,3.692v7.515h-1.772v-6.835a12.673,12.673,0,0,0-.123-1.756,4.627,4.627,0,0,0-.587-1.327,2.249,2.249,0,0,0-1.018-.852,3.424,3.424,0,0,0-1.592-.355,3.689,3.689,0,0,0-1.4.325,2.759,2.759,0,0,0-1.147.863,4.44,4.44,0,0,0-.879,1.5,7.968,7.968,0,0,0-.3,2.1v6.338h-1.778v-9.609c0-.311-.005-.759-.019-1.275s-.036-1-.063-1.382Z" transform="translate(-43.623 -706.601)" fill="#1d1e1c"/>
      <path id="Trazado_36" data-name="Trazado 36" d="M464.9,810.525a5.913,5.913,0,0,1-.489,2.553,6.015,6.015,0,0,1-1.33,2.04,5.344,5.344,0,0,1-2.056,1.384,7.666,7.666,0,0,1-2.671.489,7.055,7.055,0,0,1-2.594-.489,5.636,5.636,0,0,1-2.119-1.384,6.081,6.081,0,0,1-1.324-2.04,6.912,6.912,0,0,1,0-5.106,6.017,6.017,0,0,1,1.324-2.037,6.378,6.378,0,0,1,2.119-1.384,7,7,0,0,1,2.594-.492,7.6,7.6,0,0,1,2.671.492,6.028,6.028,0,0,1,2.056,1.384,6.506,6.506,0,0,1,1.819,4.59m-1.857,0a5.587,5.587,0,0,0-.369-1.947,5.707,5.707,0,0,0-.887-1.557,4.7,4.7,0,0,0-3.432-1.464,4.807,4.807,0,0,0-1.947.415A3.869,3.869,0,0,0,455,807.021a4.83,4.83,0,0,0-.948,1.557,6.288,6.288,0,0,0,0,3.891,4.743,4.743,0,0,0,.948,1.557,3.764,3.764,0,0,0,1.409,1.04,4.945,4.945,0,0,0,1.947.409,4.793,4.793,0,0,0,1.955-.409,4.517,4.517,0,0,0,1.477-1.04,5.727,5.727,0,0,0,1.256-3.5" transform="translate(-34.489 -706.601)" fill="#1d1e1c"/>
      <path id="Trazado_37" data-name="Trazado 37" d="M461.469,804.745a4.43,4.43,0,0,1,2.4-.685,8.257,8.257,0,0,1,1.073.136,5.308,5.308,0,0,1,1.04.371,5.214,5.214,0,0,1,.958.844,4.353,4.353,0,0,1,.732,1.281,4.267,4.267,0,0,1,1.682-1.947,4.905,4.905,0,0,1,2.624-.685,4.349,4.349,0,0,1,3.5,1.414,5.533,5.533,0,0,1,1.13,3.689v7.515H474.83v-6.832a5.777,5.777,0,0,0-.729-3.094,2.64,2.64,0,0,0-2.43-1.2,3.256,3.256,0,0,0-1.641.415A2.752,2.752,0,0,0,468.973,807a5.99,5.99,0,0,0-.628,1.466,9.391,9.391,0,0,0-.139,1.685v6.526h-1.8v-7.171a11.054,11.054,0,0,0-.136-1.6,2.855,2.855,0,0,0-.47-1.248,2.283,2.283,0,0,0-.871-.838,4.44,4.44,0,0,0-1.475-.268,2.923,2.923,0,0,0-1.267.322,2.575,2.575,0,0,0-1.18.866,6,6,0,0,0-.808,1.5,6.1,6.1,0,0,0-.314,2.1v6.335h-1.819v-9.606c0-.314-.008-.762-.019-1.278s-.036-1-.063-1.376H459.7c.027.311.046.647.057,1.076s.025.737.025,1h.036a4.527,4.527,0,0,1,1.649-1.745" transform="translate(-23.84 -706.599)" fill="#1d1e1c"/>
      <path id="Trazado_38" data-name="Trazado 38" d="M468.29,820.5h-1.775V808.236h1.775Zm-.183-14.877h-1.592l2.651-3.771h2.354Z" transform="translate(-9.078 -710.42)" fill="#1d1e1c"/>
      <path id="Trazado_39" data-name="Trazado 39" d="M477.223,808.728a3.329,3.329,0,0,0-.86-2.4,3.414,3.414,0,0,0-2.452-.773,5.559,5.559,0,0,0-2.034.415,4.953,4.953,0,0,0-1.581,1.04l-1-1.2a6.845,6.845,0,0,1,2.007-1.256,7.8,7.8,0,0,1,2.8-.5,6.333,6.333,0,0,1,1.892.317,3.739,3.739,0,0,1,1.518.822,4.051,4.051,0,0,1,1.018,1.354,5.062,5.062,0,0,1,.339,1.977v5.409c0,.418.016.915.044,1.417.065.5.123.95.177,1.327H477.52a4.911,4.911,0,0,1-.158-.969c-.027-.385-.038-.7-.038-1.021h-.038a5.729,5.729,0,0,1-1.928,1.772,5.973,5.973,0,0,1-2.545.527,7.617,7.617,0,0,1-1.469-.21,3.372,3.372,0,0,1-1.335-.669,3.028,3.028,0,0,1-1.016-1.12,3.466,3.466,0,0,1-.431-1.745,3.227,3.227,0,0,1,.732-2.247,4.153,4.153,0,0,1,1.941-1.24,10.365,10.365,0,0,1,2.763-.524c1.032-.06,2.094-.15,3.225-.15Zm-.56,1.8c-.7,0-1.431.022-2.165.071a11.526,11.526,0,0,0-2.018.4,3.919,3.919,0,0,0-1.486.786,1.714,1.714,0,0,0-.617,1.417,2.028,2.028,0,0,0,.937,1.808,2.121,2.121,0,0,0,.95.361,2.878,2.878,0,0,0,1.027.148,5.218,5.218,0,0,0,1.677-.309,3.429,3.429,0,0,0,1.2-.92,2.73,2.73,0,0,0,.751-1.286,4.154,4.154,0,0,0,.3-1.537v-.937Z" transform="translate(-5.537 -706.601)" fill="#1d1e1c"/>
      <path id="Trazado_40" data-name="Trazado 40" d="M475.091,813.9h-1.5l1.757-6.129h1.836Z" transform="translate(3.176 -700.176)" fill="#1d1e1c"/>
      <path id="Trazado_41" data-name="Trazado 41" d="M478.669,801.888h1.9v8.042H490.68v-8.042h1.862v18.55H490.68v-8.771H480.564v8.771h-1.9Z" transform="translate(11.955 -710.358)" fill="#1d1e1c"/>
      <path id="Trazado_42" data-name="Trazado 42" d="M493.813,808.728a3.313,3.313,0,0,0-.822-2.4,3.449,3.449,0,0,0-2.452-.773,5.363,5.363,0,0,0-2.037.415,4.687,4.687,0,0,0-1.578,1.04l-1-1.2a6.519,6.519,0,0,1,2-1.256,7.813,7.813,0,0,1,2.8-.5,5.69,5.69,0,0,1,1.838.317,3.277,3.277,0,0,1,1.537.822,3.612,3.612,0,0,1,1.035,1.354,5.063,5.063,0,0,1,.36,1.977v5.409c0,.418.014.915.041,1.417a9.125,9.125,0,0,0,.178,1.327h-1.614c-.06-.336-.093-.645-.12-.969-.03-.385-.041-.7-.041-1.021h-.063a5.767,5.767,0,0,1-1.9,1.772,5.956,5.956,0,0,1-2.545.527,7.5,7.5,0,0,1-1.464-.21,3.569,3.569,0,0,1-1.36-.669,3.294,3.294,0,0,1-1.021-1.12,3.181,3.181,0,0,1-.407-1.745,3.227,3.227,0,0,1,.732-2.247,4.285,4.285,0,0,1,1.884-1.24,11.391,11.391,0,0,1,2.766-.524c1.068-.06,2.149-.15,3.244-.15Zm-.522,1.8c-.74,0-1.477.022-2.223.071a12.573,12.573,0,0,0-2.018.4,4.768,4.768,0,0,0-1.472.786,1.812,1.812,0,0,0-.573,1.417,2.417,2.417,0,0,0,.251,1.079,2.712,2.712,0,0,0,.683.729,2.146,2.146,0,0,0,.931.361,3.068,3.068,0,0,0,1.049.148,5.077,5.077,0,0,0,1.636-.309,3.188,3.188,0,0,0,1.237-.92,3.108,3.108,0,0,0,.762-1.286,4.233,4.233,0,0,0,.259-1.537v-.937Z" transform="translate(23.236 -706.601)" fill="#1d1e1c"/>
      <path id="Trazado_43" data-name="Trazado 43" d="M500.009,807.21a3.073,3.073,0,0,0-1.292-1.185,3.861,3.861,0,0,0-1.824-.467,4.943,4.943,0,0,0-1.958.407A4.568,4.568,0,0,0,493.45,807a5.029,5.029,0,0,0-.92,1.562,6.144,6.144,0,0,0-.349,1.963,6.066,6.066,0,0,0,.349,1.955,5.049,5.049,0,0,0,.912,1.548,4.432,4.432,0,0,0,1.472,1.038,4.84,4.84,0,0,0,1.961.407,4.264,4.264,0,0,0,1.993-.456,3.754,3.754,0,0,0,1.316-1.177l1.319,1a5.058,5.058,0,0,1-1.887,1.534,5.746,5.746,0,0,1-2.742.617,7.668,7.668,0,0,1-2.714-.486,5.234,5.234,0,0,1-2.048-1.39,6.7,6.7,0,0,1,0-9.18,5.916,5.916,0,0,1,2.048-1.384,7.484,7.484,0,0,1,2.714-.492,6.092,6.092,0,0,1,2.5.59,4.655,4.655,0,0,1,2.048,1.567Z" transform="translate(32.129 -706.601)" fill="#1d1e1c"/>
      <path id="Trazado_44" data-name="Trazado 44" d="M497.831,803.255a1.029,1.029,0,0,1-.38.866,1.352,1.352,0,0,1-.877.391,1.259,1.259,0,0,1-.841-.391,1.072,1.072,0,0,1-.415-.866A1.265,1.265,0,0,1,496.575,802a1.284,1.284,0,0,1,.877.328,1.151,1.151,0,0,1,.38.928m-.341,16.99h-1.8V807.982h1.8Z" transform="translate(40.77 -710.166)" fill="#1d1e1c"/>
      <path id="Trazado_45" data-name="Trazado 45" d="M509.571,810.185v.361c0,.166-.008.279-.019.456h-10.2a5.669,5.669,0,0,0,.4,1.737,3.737,3.737,0,0,0,.956,1.376,3.882,3.882,0,0,0,1.379.969,4.469,4.469,0,0,0,4.18-.279,5.15,5.15,0,0,0,1.529-1.488l1.319,1.038a6.3,6.3,0,0,1-2.395,2,6.669,6.669,0,0,1-2.875.639,6.981,6.981,0,0,1-2.529-.489,5.313,5.313,0,0,1-2-1.384A6.282,6.282,0,0,1,498,813.079,7.03,7.03,0,0,1,498,807.97a6.183,6.183,0,0,1,3.274-3.421,6.326,6.326,0,0,1,2.455-.489,6.508,6.508,0,0,1,2.529.489,5.136,5.136,0,0,1,1.821,1.354,5.248,5.248,0,0,1,1.125,1.887,7.242,7.242,0,0,1,.371,2.395m-1.8-.617a4.315,4.315,0,0,0-1.147-2.845,3.638,3.638,0,0,0-2.9-1.166,3.987,3.987,0,0,0-1.677.366,4.515,4.515,0,0,0-1.319.86,4.082,4.082,0,0,0-1.319,2.785Z" transform="translate(44.576 -706.599)" fill="#1d1e1c"/>
      <path id="Trazado_46" data-name="Trazado 46" d="M505.016,804.417c.025.314.044.653.057,1.079s.022.74.022,1h.041a4.346,4.346,0,0,1,1.712-1.748,4.872,4.872,0,0,1,2.5-.688,4.288,4.288,0,0,1,3.5,1.417,5.553,5.553,0,0,1,1.163,3.692v7.515h-1.786v-6.835a13.051,13.051,0,0,0-.145-1.756,4.637,4.637,0,0,0-.53-1.327,2.557,2.557,0,0,0-1.038-.852,3.547,3.547,0,0,0-1.627-.355,3.307,3.307,0,0,0-1.346.325,2.558,2.558,0,0,0-1.207.863,4.643,4.643,0,0,0-.836,1.5,6.426,6.426,0,0,0-.344,2.1v6.338h-1.775v-9.609c0-.311-.008-.759-.019-1.275s-.033-1-.06-1.382Z" transform="translate(54.579 -706.601)" fill="#1d1e1c"/>
      <path id="Trazado_47" data-name="Trazado 47" d="M519.571,819.131a4.882,4.882,0,0,1-2.037,1.775,5.639,5.639,0,0,1-2.578.639,7.016,7.016,0,0,1-2.638-.5,6.365,6.365,0,0,1-2-1.4,6.065,6.065,0,0,1-1.275-2.037,7.07,7.07,0,0,1,0-5.068,6.014,6.014,0,0,1,1.275-2.037,7.464,7.464,0,0,1,2-1.4,7.016,7.016,0,0,1,2.638-.5,5.553,5.553,0,0,1,2.578.65,4.9,4.9,0,0,1,2.037,1.805h.038v-9.639H521.4v19.808h-1.791v-2.105Zm-9.079-4.052a5.705,5.705,0,0,0,.3,1.944,4.724,4.724,0,0,0,.923,1.557,3.513,3.513,0,0,0,1.45,1.04,4.73,4.73,0,0,0,3.85,0,4.7,4.7,0,0,0,1.5-1.029,5.082,5.082,0,0,0,.988-1.546,6.012,6.012,0,0,0,0-3.932,5.352,5.352,0,0,0-.988-1.559,4.711,4.711,0,0,0-1.5-1.035,4.773,4.773,0,0,0-1.917-.407,4.626,4.626,0,0,0-1.933.415,3.6,3.6,0,0,0-1.45,1.048,4.809,4.809,0,0,0-.923,1.557,5.732,5.732,0,0,0-.3,1.947" transform="translate(63.711 -711.154)" fill="#1d1e1c"/>
      <path id="Trazado_48" data-name="Trazado 48" d="M523.317,808.728a3.313,3.313,0,0,0-.822-2.4,3.521,3.521,0,0,0-2.455-.773,5.262,5.262,0,0,0-2.032.415,4.171,4.171,0,0,0-1.581,1.04l-1-1.2a6.13,6.13,0,0,1,2-1.256,7.84,7.84,0,0,1,2.807-.5,5.812,5.812,0,0,1,1.838.317,3.279,3.279,0,0,1,1.518.822,3.4,3.4,0,0,1,1.035,1.354,5.321,5.321,0,0,1,.379,1.977v5.409c0,.418.014.915.038,1.417a9.5,9.5,0,0,0,.18,1.327H523.6c-.041-.336-.074-.645-.1-.969-.027-.385-.057-.7-.057-1.021h-.068a5.536,5.536,0,0,1-1.881,1.772,5.965,5.965,0,0,1-2.545.527,7.589,7.589,0,0,1-1.466-.21,3.608,3.608,0,0,1-1.36-.669,3.74,3.74,0,0,1-1.051-1.12,3.494,3.494,0,0,1-.374-1.745,3.3,3.3,0,0,1,.718-2.247,4.284,4.284,0,0,1,1.9-1.24,11.218,11.218,0,0,1,2.766-.524c1.065-.06,2.149-.15,3.244-.15Zm-.521,1.8c-.74,0-1.48.022-2.223.071a12.3,12.3,0,0,0-2.015.4,5.04,5.04,0,0,0-1.491.786,1.869,1.869,0,0,0-.557,1.417,2.05,2.05,0,0,0,.251,1.079,2.481,2.481,0,0,0,.683.729,2.19,2.19,0,0,0,.915.361,3.185,3.185,0,0,0,1.043.148,5.1,5.1,0,0,0,1.657-.309,3.854,3.854,0,0,0,2-2.206,4.175,4.175,0,0,0,.259-1.537v-.937Z" transform="translate(74.296 -706.601)" fill="#1d1e1c"/>
      <path id="Trazado_49" data-name="Trazado 49" d="M527.988,814.529h.041l3.809-10.338h1.936l-6.087,15.4a6.278,6.278,0,0,1-1.428,2.269,3.29,3.29,0,0,1-2.428.887,10.139,10.139,0,0,1-1.611-.18l.2-1.657a3.4,3.4,0,0,0,1.3.218,1.807,1.807,0,0,0,1.456-.546,5.753,5.753,0,0,0,.909-1.589l.983-2.613-5.226-12.192h1.993Z" transform="translate(86.666 -706.373)" fill="#1d1e1c"/>
      <path id="Trazado_50" data-name="Trazado 50" d="M531.531,820.438h-1.857v-18.55h11.159v1.637h-9.3v6.446H540.2v1.7h-8.672Z" transform="translate(100.226 -710.358)" fill="#1d1e1c"/>
      <path id="Trazado_51" data-name="Trazado 51" d="M537.247,803.255a1.075,1.075,0,0,1-.418.866,1.254,1.254,0,0,1-.841.391,1.346,1.346,0,0,1-.9-.391,1.03,1.03,0,0,1-.361-.866,1.155,1.155,0,0,1,.361-.928,1.288,1.288,0,0,1,.9-.328,1.269,1.269,0,0,1,1.259,1.256m-.4,16.99h-1.775V807.982h1.775Z" transform="translate(108.979 -710.166)" fill="#1d1e1c"/>
      <path id="Trazado_52" data-name="Trazado 52" d="M538.914,804.417a10.168,10.168,0,0,1,.079,1.079c.014.426.022.74.022,1h.038a4.234,4.234,0,0,1,1.715-1.748,4.836,4.836,0,0,1,2.5-.688,4.274,4.274,0,0,1,3.5,1.417,5.541,5.541,0,0,1,1.169,3.692v7.515h-1.808v-6.835a12.668,12.668,0,0,0-.126-1.756,4.585,4.585,0,0,0-.552-1.327,2.451,2.451,0,0,0-1.019-.852,3.567,3.567,0,0,0-1.625-.355,3.449,3.449,0,0,0-1.363.325,2.611,2.611,0,0,0-1.191.863,4.419,4.419,0,0,0-.844,1.5,6.59,6.59,0,0,0-.333,2.1v6.338H537.3v-9.609c0-.311-.008-.759-.022-1.275s-.033-1-.06-1.382Z" transform="translate(113.278 -706.601)" fill="#1d1e1c"/>
      <path id="Trazado_53" data-name="Trazado 53" d="M551.148,808.728a3.184,3.184,0,0,0-.857-2.4,3.386,3.386,0,0,0-2.417-.773,5.272,5.272,0,0,0-2.04.415,4.815,4.815,0,0,0-1.614,1.04l-.994-1.2a6.758,6.758,0,0,1,2-1.256,7.883,7.883,0,0,1,2.807-.5,6.049,6.049,0,0,1,1.882.317,3.71,3.71,0,0,1,1.529.822,3.6,3.6,0,0,1,1.016,1.354,5.064,5.064,0,0,1,.341,1.977v5.409a13.453,13.453,0,0,0,.079,1.417c.03.5.087.95.139,1.327h-1.575c-.063-.336-.126-.645-.161-.969-.027-.385-.038-.7-.038-1.021h-.041a5.7,5.7,0,0,1-1.925,1.772,5.892,5.892,0,0,1-2.545.527,7.5,7.5,0,0,1-1.466-.21,3.691,3.691,0,0,1-1.341-.669,3.074,3.074,0,0,1-1.016-1.12,3.494,3.494,0,0,1-.429-1.745,3.24,3.24,0,0,1,.729-2.247,4.387,4.387,0,0,1,1.941-1.24,10.72,10.72,0,0,1,2.764-.524c1.035-.06,2.1-.15,3.228-.15Zm-.522,1.8c-.737,0-1.472.022-2.212.071a12.1,12.1,0,0,0-2.026.4,3.911,3.911,0,0,0-1.466.786,1.677,1.677,0,0,0-.584,1.417,2.248,2.248,0,0,0,.248,1.079,2.194,2.194,0,0,0,.655.729,2.268,2.268,0,0,0,.947.361,2.994,2.994,0,0,0,1.024.148,5.072,5.072,0,0,0,1.682-.309,3.6,3.6,0,0,0,1.237-.92,3.488,3.488,0,0,0,.754-1.286,5.072,5.072,0,0,0,.262-1.537v-.937Z" transform="translate(122.398 -706.601)" fill="#1d1e1c"/>
      <path id="Trazado_54" data-name="Trazado 54" d="M549.627,804.417c.027.314.044.653.057,1.079s.038.74.038,1h.06a4.048,4.048,0,0,1,1.679-1.748,5.034,5.034,0,0,1,2.493-.688,4.234,4.234,0,0,1,3.5,1.417,5.547,5.547,0,0,1,1.188,3.692v7.515h-1.778v-6.835a8.625,8.625,0,0,0-.177-1.756,3.605,3.605,0,0,0-.53-1.327,2.354,2.354,0,0,0-1.019-.852,3.456,3.456,0,0,0-2.993-.03,2.8,2.8,0,0,0-1.207.863,5.618,5.618,0,0,0-.822,1.5,6.122,6.122,0,0,0-.314,2.1v6.338h-1.78v-9.609c0-.311-.008-.759-.022-1.275-.041-.521-.068-1-.1-1.382Z" transform="translate(131.784 -706.601)" fill="#1d1e1c"/>
      <path id="Trazado_55" data-name="Trazado 55" d="M562.67,805.448l-7.339,9.42h7.6v1.587h-9.968v-1.262l7.3-9.507h-6.926v-1.5h9.334Z" transform="translate(140.524 -706.374)" fill="#1d1e1c"/>
      <path id="Trazado_56" data-name="Trazado 56" d="M566.063,808.728a3.323,3.323,0,0,0-.816-2.4,3.521,3.521,0,0,0-2.455-.773,5.276,5.276,0,0,0-2.034.415,4.449,4.449,0,0,0-1.6,1.04l-.994-1.2a6.28,6.28,0,0,1,2-1.256,7.926,7.926,0,0,1,2.826-.5,5.808,5.808,0,0,1,1.835.317,3.343,3.343,0,0,1,1.521.822,3.278,3.278,0,0,1,1.032,1.354,5.378,5.378,0,0,1,.38,1.977v5.409c0,.418.011.915.038,1.417a9.663,9.663,0,0,0,.164,1.327h-1.614c-.044-.336-.079-.645-.1-.969a8.266,8.266,0,0,1-.063-1.021h-.066a5.673,5.673,0,0,1-1.876,1.772,6.077,6.077,0,0,1-2.567.527,7.437,7.437,0,0,1-1.444-.21,3.677,3.677,0,0,1-1.371-.669,3.869,3.869,0,0,1-1.046-1.12,3.525,3.525,0,0,1-.374-1.745A3.234,3.234,0,0,1,558.15,811a4.342,4.342,0,0,1,1.906-1.24,11.168,11.168,0,0,1,2.766-.524c1.057-.06,2.133-.15,3.241-.15Zm-.519,1.8c-.74,0-1.477.022-2.223.071a12.019,12.019,0,0,0-2.015.4,4.909,4.909,0,0,0-1.485.786,1.843,1.843,0,0,0-.562,1.417,2.157,2.157,0,0,0,.251,1.079,2.2,2.2,0,0,0,1.584,1.089,3.318,3.318,0,0,0,1.057.148,5.067,5.067,0,0,0,1.655-.309,3.259,3.259,0,0,0,1.24-.92A3.194,3.194,0,0,0,565.8,813a4.118,4.118,0,0,0,.259-1.537v-.937Z" transform="translate(148.273 -706.601)" fill="#1d1e1c"/>
      <path id="Trazado_57" data-name="Trazado 57" d="M570.274,807.292a3.361,3.361,0,0,0-1.185-1.245,3.611,3.611,0,0,0-1.829-.489,4.887,4.887,0,0,0-.939.139,2.7,2.7,0,0,0-.836.317,2.021,2.021,0,0,0-.59.639,1.527,1.527,0,0,0-.218.838,1.454,1.454,0,0,0,.7,1.308,7.435,7.435,0,0,0,2.239.767,8.137,8.137,0,0,1,3.181,1.292,2.92,2.92,0,0,1,1.051,2.34,3.714,3.714,0,0,1-.393,1.767,3.625,3.625,0,0,1-1.068,1.139,3.948,3.948,0,0,1-1.483.68,6.772,6.772,0,0,1-1.671.207,6.414,6.414,0,0,1-2.714-.617,4.554,4.554,0,0,1-2.127-1.8l1.4-1.038a4.522,4.522,0,0,0,1.409,1.4,3.978,3.978,0,0,0,2.012.538,3.334,3.334,0,0,0,1.079-.137,2.018,2.018,0,0,0,.939-.341,2.236,2.236,0,0,0,.625-.688,1.98,1.98,0,0,0,.232-1.008,1.669,1.669,0,0,0-.926-1.466,13.2,13.2,0,0,0-2.687-.868c-.358-.126-.754-.21-1.18-.369a3.136,3.136,0,0,1-1.117-.56,2.679,2.679,0,0,1-1.215-2.365,3.552,3.552,0,0,1,.363-1.647,3.225,3.225,0,0,1,.98-1.079,5.517,5.517,0,0,1,1.412-.666,7.739,7.739,0,0,1,1.622-.221,5.314,5.314,0,0,1,2.474.617,3.709,3.709,0,0,1,1.827,1.6Z" transform="translate(156.855 -706.601)" fill="#1d1e1c"/>
      <path id="Trazado_58" data-name="Trazado 58" d="M385.194,816.666a7.232,7.232,0,0,0-2.316-1.625,8.423,8.423,0,0,0-3.061-.552,7.467,7.467,0,0,0-3.219.68,6.729,6.729,0,0,0-2.422,1.764,7.98,7.98,0,0,0-1.521,2.561,9.023,9.023,0,0,0,0,6.2,8.076,8.076,0,0,0,1.521,2.55A7.541,7.541,0,0,0,376.6,830a7.449,7.449,0,0,0,3.219.617,11.309,11.309,0,0,0,2.884-.32,8.158,8.158,0,0,0,2.122-.838V823.79H380.5V822.1h6.215v8.413a12.436,12.436,0,0,1-3.271,1.338,13.733,13.733,0,0,1-3.648.461,9.932,9.932,0,0,1-3.877-.74,8.9,8.9,0,0,1-3.075-2.026,8.615,8.615,0,0,1-2-3.064,10.273,10.273,0,0,1-.713-3.932,9.976,9.976,0,0,1,.721-3.872,9.176,9.176,0,0,1,5.1-5.147,10.771,10.771,0,0,1,7.719-.049,8.482,8.482,0,0,1,2.829,1.827Z" transform="translate(-175.889 -691.484)" fill="#9c9c9a"/>
      <path id="Trazado_59" data-name="Trazado 59" d="M390.679,821.631a6.828,6.828,0,0,1-.483,2.556,6.133,6.133,0,0,1-1.346,2.034,7.4,7.4,0,0,1-7.34,1.384,7.079,7.079,0,0,1-2.067-1.384,6.032,6.032,0,0,1-1.354-2.034,6.677,6.677,0,0,1-.492-2.556,6.444,6.444,0,0,1,.492-2.556,6.238,6.238,0,0,1,1.354-2.094,5.983,5.983,0,0,1,2.067-1.327,7.288,7.288,0,0,1,5.262,0,6.135,6.135,0,0,1,2.078,1.327,6.345,6.345,0,0,1,1.346,2.094,6.588,6.588,0,0,1,.483,2.556m-1.887,0a6.024,6.024,0,0,0-.317-1.947,5.1,5.1,0,0,0-.942-1.556,4.286,4.286,0,0,0-1.458-1.051,4.8,4.8,0,0,0-1.952-.415,4.554,4.554,0,0,0-1.914.415,4.217,4.217,0,0,0-1.466,1.051,5.1,5.1,0,0,0-.92,1.556,5.563,5.563,0,0,0-.339,1.947,5.134,5.134,0,0,0,.339,1.884,4.78,4.78,0,0,0,.92,1.616,4.321,4.321,0,0,0,1.466,1.038,4.587,4.587,0,0,0,1.914.35,4.831,4.831,0,0,0,1.952-.35,4.394,4.394,0,0,0,1.458-1.038,4.775,4.775,0,0,0,.942-1.616,5.554,5.554,0,0,0,.317-1.884" transform="translate(-162.961 -687.386)" fill="#9c9c9a"/>
      <path id="Trazado_60" data-name="Trazado 60" d="M385.59,830.273v2.054h-1.783V812.51h1.783v9.7h.06a4.863,4.863,0,0,1,2.034-1.8,5.658,5.658,0,0,1,2.605-.65,6.971,6.971,0,0,1,2.613.5,5.605,5.605,0,0,1,2,1.382,6.644,6.644,0,0,1,1.278,2.051,7.082,7.082,0,0,1,.448,2.537,7.343,7.343,0,0,1-.448,2.534,5.861,5.861,0,0,1-3.274,3.389,6.245,6.245,0,0,1-2.613.481,5.706,5.706,0,0,1-2.605-.576,5.257,5.257,0,0,1-2.034-1.775Zm9.15-4.052a5.677,5.677,0,0,0-.314-1.947,5.2,5.2,0,0,0-.893-1.556,4,4,0,0,0-1.466-1.051,4.843,4.843,0,0,0-1.969-.415,4.71,4.71,0,0,0-1.884.407,4.481,4.481,0,0,0-1.5,1.038,4.975,4.975,0,0,0-.967,1.556,5.117,5.117,0,0,0-.36,1.969,5.309,5.309,0,0,0,.36,1.963,4.968,4.968,0,0,0,.967,1.548,4.743,4.743,0,0,0,1.5,1.027,4.631,4.631,0,0,0,1.884.35,4.877,4.877,0,0,0,1.969-.35,4.093,4.093,0,0,0,1.466-1.038,4.867,4.867,0,0,0,.893-1.616,5.241,5.241,0,0,0,.314-1.884" transform="translate(-152.214 -691.976)" fill="#9c9c9a"/>
      <path id="Trazado_61" data-name="Trazado 61" d="M392.287,814.36a1.131,1.131,0,0,1-.388.866,1.251,1.251,0,0,1-.868.39,1.332,1.332,0,0,1-.871-.39,1.126,1.126,0,0,1-.382-.866,1.177,1.177,0,0,1,.382-.931,1.276,1.276,0,0,1,.871-.328,1.206,1.206,0,0,1,.868.328,1.18,1.18,0,0,1,.388.931m-.369,16.943h-1.775V819.029h1.775Z" transform="translate(-141.88 -690.953)" fill="#9c9c9a"/>
      <path id="Trazado_62" data-name="Trazado 62" d="M404.032,821.23v.418c0,.109-.005.279-.019.459H393.841a4.913,4.913,0,0,0,.371,1.734,4.02,4.02,0,0,0,.926,1.379,4.241,4.241,0,0,0,1.434.969,4.187,4.187,0,0,0,1.75.328,4.3,4.3,0,0,0,2.406-.609,5.4,5.4,0,0,0,1.526-1.486l1.327,1.035a6.538,6.538,0,0,1-2.422,2,6.4,6.4,0,0,1-2.837.579,6.887,6.887,0,0,1-2.537-.432,7.043,7.043,0,0,1-2-1.384,6.292,6.292,0,0,1-1.322-2.034,6.576,6.576,0,0,1-.486-2.558,6.428,6.428,0,0,1,.478-2.553,5.762,5.762,0,0,1,3.274-3.422,6.353,6.353,0,0,1,2.425-.489,6.522,6.522,0,0,1,2.55.489,5.213,5.213,0,0,1,1.832,1.3,5.52,5.52,0,0,1,1.114,1.944,7.147,7.147,0,0,1,.382,2.337m-1.8-.56a4.488,4.488,0,0,0-1.117-2.845,3.853,3.853,0,0,0-2.965-1.166,4.884,4.884,0,0,0-1.647.306,4.331,4.331,0,0,0-1.338.92,4.113,4.113,0,0,0-.917,1.278,3.962,3.962,0,0,0-.388,1.507Z" transform="translate(-138.077 -687.384)" fill="#9c9c9a"/>
      <path id="Trazado_63" data-name="Trazado 63" d="M397.82,816.9c-.016-.516-.038-1-.063-1.436h1.688a8.619,8.619,0,0,1,.087,1.139c.016.366.025.735.025,1h.06a4.141,4.141,0,0,1,1.562-1.748,4.28,4.28,0,0,1,2.367-.688c.232,0,.418.005.617.022a1.339,1.339,0,0,1,.549.139l-.237,1.657a3.923,3.923,0,0,0-.519-.082,6.774,6.774,0,0,0-.74-.041,3.409,3.409,0,0,0-1.357.262,3.272,3.272,0,0,0-1.136.805,5.393,5.393,0,0,0-.792,1.453,6.486,6.486,0,0,0-.287,2.084v6.275h-1.783V818.18c0-.317-.019-.759-.041-1.281" transform="translate(-128.072 -687.386)" fill="#9c9c9a"/>
      <path id="Trazado_64" data-name="Trazado 64" d="M402.911,815.462c.044.374.063.713.076,1.139.014.366.022.735.022,1h.068a3.993,3.993,0,0,1,1.682-1.748,4.976,4.976,0,0,1,2.5-.688,4.272,4.272,0,0,1,3.5,1.417,5.381,5.381,0,0,1,1.161,3.634v7.523h-1.778v-6.783a9.33,9.33,0,0,0-.147-1.759,3.512,3.512,0,0,0-.532-1.327,2.569,2.569,0,0,0-1.043-.909,3.485,3.485,0,0,0-1.592-.3,3.176,3.176,0,0,0-1.376.279,3.361,3.361,0,0,0-1.207.907,3.873,3.873,0,0,0-.847,1.5,6.913,6.913,0,0,0-.3,2.108v6.283h-1.778V818.18c0-.317-.008-.759-.038-1.281s-.044-1-.071-1.436Z" transform="translate(-122.096 -687.386)" fill="#9c9c9a"/>
      <path id="Trazado_65" data-name="Trazado 65" d="M419.572,821.631a6.479,6.479,0,0,1-.494,2.556,5.709,5.709,0,0,1-1.346,2.034,6.714,6.714,0,0,1-9.4,0,5.812,5.812,0,0,1-1.343-2.034,6.523,6.523,0,0,1-.489-2.556,6.3,6.3,0,0,1,.489-2.556,6.012,6.012,0,0,1,1.343-2.094,6.138,6.138,0,0,1,2.073-1.327,7.235,7.235,0,0,1,2.621-.491,7.314,7.314,0,0,1,2.646.491,6.092,6.092,0,0,1,2.062,1.327,5.9,5.9,0,0,1,1.346,2.094,6.26,6.26,0,0,1,.494,2.556m-1.89,0a5.885,5.885,0,0,0-.325-1.947,4.971,4.971,0,0,0-.931-1.556,4.042,4.042,0,0,0-1.477-1.051,4.568,4.568,0,0,0-1.925-.415,4.48,4.48,0,0,0-1.914.415,4.113,4.113,0,0,0-1.472,1.051,4.684,4.684,0,0,0-.915,1.556,5.563,5.563,0,0,0-.339,1.947,5.134,5.134,0,0,0,.339,1.884,4.43,4.43,0,0,0,.915,1.616,4.211,4.211,0,0,0,1.472,1.038,4.521,4.521,0,0,0,1.914.35,4.606,4.606,0,0,0,1.925-.35,4.136,4.136,0,0,0,1.477-1.038,4.667,4.667,0,0,0,.931-1.616,5.427,5.427,0,0,0,.325-1.884" transform="translate(-112.944 -687.386)" fill="#9c9c9a"/>
      <path id="Trazado_66" data-name="Trazado 66" d="M425.73,830.273a5.113,5.113,0,0,1-2.037,1.775,5.69,5.69,0,0,1-2.605.576,6.319,6.319,0,0,1-2.608-.481,6.1,6.1,0,0,1-3.277-3.389,7.337,7.337,0,0,1-.44-2.534,7.081,7.081,0,0,1,.44-2.537,6.2,6.2,0,0,1,1.308-2.051,5.256,5.256,0,0,1,1.969-1.382,7.071,7.071,0,0,1,2.608-.5,5.642,5.642,0,0,1,2.605.65,4.742,4.742,0,0,1,2.037,1.8h.068v-9.7h1.778v19.816H425.8v-2.054Zm-9.079-4.052a5.988,5.988,0,0,0,.3,1.884,4.824,4.824,0,0,0,.9,1.616,4.3,4.3,0,0,0,1.469,1.038,4.882,4.882,0,0,0,1.972.35,4.679,4.679,0,0,0,1.887-.35,5.015,5.015,0,0,0,1.5-1.027,4.658,4.658,0,0,0,.956-1.548,5.368,5.368,0,0,0,.36-1.963,5.172,5.172,0,0,0-.36-1.969,4.666,4.666,0,0,0-.956-1.556,4.805,4.805,0,0,0-3.386-1.445,4.846,4.846,0,0,0-1.972.415,4.2,4.2,0,0,0-1.469,1.051,5.146,5.146,0,0,0-.9,1.556,6.5,6.5,0,0,0-.3,1.947" transform="translate(-98.639 -691.976)" fill="#9c9c9a"/>
      <path id="Trazado_67" data-name="Trazado 67" d="M432.929,821.23v.418c0,.109-.011.279-.022.459H422.736a5.786,5.786,0,0,0,.344,1.734,4.137,4.137,0,0,0,.958,1.379,4.256,4.256,0,0,0,1.4.969,4.344,4.344,0,0,0,1.759.328,4.171,4.171,0,0,0,2.4-.609,5.107,5.107,0,0,0,1.551-1.486l1.322,1.035a6.654,6.654,0,0,1-2.417,2,6.491,6.491,0,0,1-2.854.579,6.819,6.819,0,0,1-2.526-.432,7.336,7.336,0,0,1-2-1.384,6.214,6.214,0,0,1-1.308-2.034,6.525,6.525,0,0,1-.483-2.558,6.945,6.945,0,0,1,.448-2.553,6.251,6.251,0,0,1,1.324-2.094,5.88,5.88,0,0,1,1.974-1.327,6.331,6.331,0,0,1,2.425-.489,6.488,6.488,0,0,1,2.534.489,5.193,5.193,0,0,1,1.846,1.3,5.533,5.533,0,0,1,1.12,1.944,7.3,7.3,0,0,1,.379,2.337m-1.827-.56a4.184,4.184,0,0,0-1.117-2.845,3.758,3.758,0,0,0-2.935-1.166,4.772,4.772,0,0,0-1.647.306,4.577,4.577,0,0,0-2.258,2.2,4.015,4.015,0,0,0-.388,1.507Z" transform="translate(-88.057 -687.384)" fill="#9c9c9a"/>
      <path id="Trazado_68" data-name="Trazado 68" d="M431.012,829.888h9.927v1.641H429.125V812.971h11.515v1.7h-9.627v6.343H440v1.7h-8.989Z" transform="translate(-73.786 -691.178)" fill="#9c9c9a"/>
      <path id="Trazado_69" data-name="Trazado 69" d="M436.446,815.462c.027.374.046.713.06,1.139.014.366.019.735.019,1h.041a4.379,4.379,0,0,1,1.718-1.748,4.964,4.964,0,0,1,2.493-.688,4.292,4.292,0,0,1,3.5,1.417,5.391,5.391,0,0,1,1.185,3.634v7.523H443.69v-6.783a11.779,11.779,0,0,0-.177-1.759,3.084,3.084,0,0,0-.53-1.327,2.387,2.387,0,0,0-1.019-.909,3.713,3.713,0,0,0-1.644-.3,3.29,3.29,0,0,0-1.349.279,3.586,3.586,0,0,0-1.207.907,4.282,4.282,0,0,0-.822,1.5,6.108,6.108,0,0,0-.295,2.108v6.283h-1.775V818.18c0-.317-.071-.759-.082-1.281s-.033-1-.06-1.436Z" transform="translate(-64.084 -687.386)" fill="#9c9c9a"/>
      <path id="Trazado_70" data-name="Trazado 70" d="M447.3,818.932h-3.476v7.184a4.51,4.51,0,0,0,.158,1.1,1.948,1.948,0,0,0,.352.707,1.144,1.144,0,0,0,.625.322,1.784,1.784,0,0,0,.74.126,1.839,1.839,0,0,0,.765-.136,2.253,2.253,0,0,0,.775-.279l.06,1.537a3.011,3.011,0,0,1-.994.27,3.67,3.67,0,0,1-1.087.125,2.988,2.988,0,0,1-1.032-.158,2.119,2.119,0,0,1-1.024-.5,2.439,2.439,0,0,1-.825-1,4.417,4.417,0,0,1-.289-1.617v-7.684h-2.534v-1.5h2.534v-3.413h1.775v3.413H447.3Z" transform="translate(-55.8 -689.359)" fill="#9c9c9a"/>
      <path id="Trazado_71" data-name="Trazado 71" d="M443.415,816.9c-.016-.516-.035-1-.06-1.436h1.715c.027.372.046.713.06,1.139.016.366.022.735.022,1h.038a4.926,4.926,0,0,1,1.556-1.748,4.315,4.315,0,0,1,2.4-.688,5.79,5.79,0,0,1,.587.022,1.6,1.6,0,0,1,.606.139l-.238,1.657c-.139-.027-.273-.052-.519-.082a6.811,6.811,0,0,0-.74-.041,3.56,3.56,0,0,0-1.4.262,2.869,2.869,0,0,0-1.106.805,3.493,3.493,0,0,0-.781,1.453,5.976,5.976,0,0,0-.347,2.084v6.275h-1.775V818.18c0-.317-.008-.759-.019-1.281" transform="translate(-49.159 -687.386)" fill="#9c9c9a"/>
      <path id="Trazado_72" data-name="Trazado 72" d="M458.392,821.23v.418c0,.109-.005.279-.019.459H448.234a4.855,4.855,0,0,0,.339,1.734,3.8,3.8,0,0,0,.956,1.379,4.521,4.521,0,0,0,1.439.969,4.885,4.885,0,0,0,4.12-.281,4.684,4.684,0,0,0,1.526-1.486l1.376,1.035a6.9,6.9,0,0,1-2.441,2,6.478,6.478,0,0,1-2.829.579,6.694,6.694,0,0,1-2.52-.432,6.225,6.225,0,0,1-2.007-1.384,6.363,6.363,0,0,1-1.368-2.034,7.118,7.118,0,0,1-.489-2.558,7,7,0,0,1,.478-2.553,7.429,7.429,0,0,1,1.3-2.094,6.215,6.215,0,0,1,4.426-1.816,6.482,6.482,0,0,1,2.537.489,4.689,4.689,0,0,1,1.819,1.3,5.634,5.634,0,0,1,1.147,1.944,7.131,7.131,0,0,1,.35,2.337m-1.8-.56a4.139,4.139,0,0,0-1.089-2.845,3.857,3.857,0,0,0-2.965-1.166,5.122,5.122,0,0,0-1.674.306,4.368,4.368,0,0,0-1.316.92,4.717,4.717,0,0,0-.937,1.278,5.352,5.352,0,0,0-.361,1.507Z" transform="translate(-44 -687.384)" fill="#9c9c9a"/>
      <path id="Trazado_73" data-name="Trazado 73" d="M456.514,831.528h-1.92V812.971h5.469a14.288,14.288,0,0,1,2.526.259,5.527,5.527,0,0,1,2.018.885,3.592,3.592,0,0,1,1.308,1.526,4.608,4.608,0,0,1,.478,2.3,4.437,4.437,0,0,1-1.338,3.3,4.939,4.939,0,0,1-1.5.988,6.482,6.482,0,0,1-1.914.478l5.445,8.82H464.8l-5.172-8.643h-3.11Zm0-10.3h3.271a6.527,6.527,0,0,0,3.514-.808,2.854,2.854,0,0,0,1.237-2.485,3.212,3.212,0,0,0-.382-1.537,2.7,2.7,0,0,0-.92-1.018,4.039,4.039,0,0,0-1.45-.568,8.431,8.431,0,0,0-1.936-.188h-3.334Z" transform="translate(-29.709 -691.178)" fill="#9c9c9a"/>
      <path id="Trazado_74" data-name="Trazado 74" d="M461.9,816.741h-1.592l2.651-3.771h2.356Zm.221,14.789h-1.813V819.256h1.813Z" transform="translate(-19.815 -691.18)" fill="#9c9c9a"/>
      <path id="Trazado_75" data-name="Trazado 75" d="M475.458,821.631a7.115,7.115,0,0,1-.489,2.556,5.972,5.972,0,0,1-1.33,2.034,7.383,7.383,0,0,1-2.111,1.384,7.147,7.147,0,0,1-2.616.429,7.574,7.574,0,0,1-2.651-.429,7.038,7.038,0,0,1-2.059-1.384,6.006,6.006,0,0,1-1.327-2.034,6.111,6.111,0,0,1-.489-2.556,5.918,5.918,0,0,1,.489-2.556,6.216,6.216,0,0,1,1.327-2.094,5.949,5.949,0,0,1,2.059-1.327,7.608,7.608,0,0,1,2.651-.491,7.151,7.151,0,0,1,2.616.491,5.651,5.651,0,0,1,3.441,3.422,6.851,6.851,0,0,1,.489,2.556m-1.917,0a5.546,5.546,0,0,0-.309-1.947,4.818,4.818,0,0,0-.948-1.556,3.8,3.8,0,0,0-1.425-1.051,4.857,4.857,0,0,0-1.947-.415,4.65,4.65,0,0,0-3.413,1.466,5.5,5.5,0,0,0-.89,1.556,5.642,5.642,0,0,0-.366,1.947,5.2,5.2,0,0,0,.366,1.884,5.119,5.119,0,0,0,.89,1.616,4.77,4.77,0,0,0,1.469,1.038,4.665,4.665,0,0,0,1.944.35,4.874,4.874,0,0,0,1.947-.35,3.889,3.889,0,0,0,1.425-1.038,4.534,4.534,0,0,0,.948-1.616,5.123,5.123,0,0,0,.309-1.884" transform="translate(-16.224 -687.386)" fill="#9c9c9a"/>
      <path id="Trazado_76" data-name="Trazado 76" d="M475.94,818.4a2.883,2.883,0,0,0-1.2-1.245,3.469,3.469,0,0,0-1.808-.489,6.235,6.235,0,0,0-.959.082,3.236,3.236,0,0,0-.819.377,1.24,1.24,0,0,0-.568.579,1.659,1.659,0,0,0,.489,2.2,6.756,6.756,0,0,0,2.215.767,7.389,7.389,0,0,1,3.184,1.289,2.762,2.762,0,0,1,1.029,2.286,3.581,3.581,0,0,1-.369,1.767,3.87,3.87,0,0,1-1.051,1.2,5.748,5.748,0,0,1-1.485.68,9.647,9.647,0,0,1-1.685.15,6.349,6.349,0,0,1-2.717-.56,4.866,4.866,0,0,1-2.113-1.8l1.379-1.038a4.14,4.14,0,0,0,1.414,1.338,3.5,3.5,0,0,0,2.018.538,6.63,6.63,0,0,0,1.079-.079,2.776,2.776,0,0,0,.937-.341,2.268,2.268,0,0,0,.634-.688,2.231,2.231,0,0,0,.2-1,1.539,1.539,0,0,0-.89-1.469,17.679,17.679,0,0,0-2.706-.926,7.456,7.456,0,0,1-1.185-.311,3.236,3.236,0,0,1-1.106-.56,2.66,2.66,0,0,1-.9-.967,3.041,3.041,0,0,1-.32-1.456,3.316,3.316,0,0,1,.374-1.589,3.171,3.171,0,0,1,.956-1.1,4.174,4.174,0,0,1,1.425-.647,5.257,5.257,0,0,1,1.611-.221,6.022,6.022,0,0,1,2.479.56,4.181,4.181,0,0,1,1.854,1.657Z" transform="translate(-6.371 -687.386)" fill="#9c9c9a"/>
      <path id="Trazado_77" data-name="Trazado 77" d="M370.587,790.107H383.7V793.2h-9.589v5.039H383.2v2.948h-9.085V806.8h10.094v3.164h-13.62Z" transform="translate(-175.093 -730.746)" fill="#3d6146"/>
      <path id="Trazado_78" data-name="Trazado 78" d="M387.875,794.569a4.408,4.408,0,0,0-1.565-1.226,5.023,5.023,0,0,0-2.075-.467,4.823,4.823,0,0,0-1.226.15,3.727,3.727,0,0,0-1.122.481,2.734,2.734,0,0,0-.819.822,2.248,2.248,0,0,0-.325,1.245,2.023,2.023,0,0,0,.289,1.144,2.322,2.322,0,0,0,.77.83,4.388,4.388,0,0,0,1.174.568c.478.188.986.344,1.545.53.631.188,1.3.426,1.969.686a7.348,7.348,0,0,1,1.876,1.026,5.15,5.15,0,0,1,1.4,1.628,4.876,4.876,0,0,1,.56,2.425,6.008,6.008,0,0,1-.6,2.78,5.1,5.1,0,0,1-1.57,1.982,6.779,6.779,0,0,1-2.3,1.193,9.685,9.685,0,0,1-2.769.418,10.227,10.227,0,0,1-3.776-.724,7.139,7.139,0,0,1-3.02-2.146l2.515-2.329a4.651,4.651,0,0,0,1.941,1.573,5.219,5.219,0,0,0,2.395.628,7,7,0,0,0,1.267-.18,2.988,2.988,0,0,0,1.163-.511,2.565,2.565,0,0,0,.83-.934,2.532,2.532,0,0,0,.325-1.332,2.2,2.2,0,0,0-.369-1.3,3.2,3.2,0,0,0-.975-.909,8.023,8.023,0,0,0-1.447-.653c-.571-.172-1.144-.382-1.764-.6a14.8,14.8,0,0,1-1.8-.663,6.133,6.133,0,0,1-1.6-1.03,5.263,5.263,0,0,1-1.169-1.592,5.34,5.34,0,0,1-.445-2.321,5.052,5.052,0,0,1,.633-2.61,5.453,5.453,0,0,1,1.644-1.824,7.859,7.859,0,0,1,2.321-1.048,9.9,9.9,0,0,1,2.654-.355,10.011,10.011,0,0,1,3.061.521,7.48,7.48,0,0,1,2.7,1.606Z" transform="translate(-165.211 -731.063)" fill="#3d6146"/>
      <path id="Trazado_79" data-name="Trazado 79" d="M387.868,793.2H381.8v-3.091h15.677V793.2h-6.088v16.763h-3.526Z" transform="translate(-155.679 -730.745)" fill="#3d6146"/>
      <path id="Trazado_80" data-name="Trazado 80" d="M395.516,790.107h3.042l8.541,19.857h-4.028l-1.849-4.59h-8.59l-1.783,4.59h-3.965ZM400,802.381l-3.061-8.058-3.094,8.058Z" transform="translate(-146.889 -730.747)" fill="#3d6146"/>
      <path id="Trazado_81" data-name="Trazado 81" d="M395.008,790.108h7.029a16.654,16.654,0,0,1,3.888.5,10.364,10.364,0,0,1,3.528,1.66,9.061,9.061,0,0,1,2.537,3.072,9.8,9.8,0,0,1,.986,4.68,9.32,9.32,0,0,1-.986,4.486,9.049,9.049,0,0,1-2.537,3.069,10.343,10.343,0,0,1-3.528,1.772,13.036,13.036,0,0,1-3.888.615h-7.029Zm6.463,16.733a11.458,11.458,0,0,0,2.736-.306,7.2,7.2,0,0,0,2.485-1.076,5.49,5.49,0,0,0,1.8-2.122,6.914,6.914,0,0,0,.7-3.318,7.7,7.7,0,0,0-.7-3.484,5.468,5.468,0,0,0-1.8-2.078,6.962,6.962,0,0,0-2.485-1.057,14.634,14.634,0,0,0-2.736-.273h-2.938v13.713Z" transform="translate(-132.829 -730.745)" fill="#3d6146"/>
      <path id="Trazado_82" data-name="Trazado 82" d="M405.617,788.063h3.815l-3.962,4.03h-2.632Zm-2.78,5.584h3.533V813.5h-3.533Z" transform="translate(-119.28 -734.284)" fill="#3d6146"/>
      <path id="Trazado_83" data-name="Trazado 83" d="M416.788,794.569a4.286,4.286,0,0,0-1.592-1.226,4.911,4.911,0,0,0-2.048-.467,4.789,4.789,0,0,0-1.237.15,3.979,3.979,0,0,0-1.122.481,2.455,2.455,0,0,0-.827.822,2.415,2.415,0,0,0-.317,1.245,2.244,2.244,0,0,0,.276,1.144,2.951,2.951,0,0,0,.762.83,4.94,4.94,0,0,0,1.207.568c.459.188.986.344,1.532.53.636.188,1.283.426,1.982.686a8.458,8.458,0,0,1,1.876,1.026,5.672,5.672,0,0,1,1.4,1.628,4.879,4.879,0,0,1,.535,2.425,6.046,6.046,0,0,1-.571,2.78,5.621,5.621,0,0,1-1.581,1.982,6.626,6.626,0,0,1-2.286,1.193,9.851,9.851,0,0,1-2.772.418,10.01,10.01,0,0,1-3.776-.724,7.358,7.358,0,0,1-3.039-2.146l2.537-2.329a4.5,4.5,0,0,0,1.931,1.573,5.216,5.216,0,0,0,2.392.628,6.815,6.815,0,0,0,1.259-.18,2.677,2.677,0,0,0,1.158-.511,2.764,2.764,0,0,0,.846-.934,2.433,2.433,0,0,0,.336-1.332,2.2,2.2,0,0,0-.369-1.3,3.52,3.52,0,0,0-.986-.909,7.162,7.162,0,0,0-1.466-.653c-.546-.172-1.144-.382-1.764-.6a17.831,17.831,0,0,1-1.786-.663,6.16,6.16,0,0,1-1.614-1.03,5.008,5.008,0,0,1-1.155-1.592,5.537,5.537,0,0,1-.461-2.321,5.276,5.276,0,0,1,.631-2.61,5.8,5.8,0,0,1,1.677-1.824,7.64,7.64,0,0,1,2.31-1.048,9.891,9.891,0,0,1,2.643-.355,10.317,10.317,0,0,1,3.083.521,7.4,7.4,0,0,1,2.684,1.606Z" transform="translate(-115.212 -731.063)" fill="#3d6146"/>
      <path id="Trazado_84" data-name="Trazado 84" d="M416.787,793.2h-6.095v-3.091h15.683V793.2h-6.065v16.763h-3.524Z" transform="translate(-105.686 -730.745)" fill="#3d6146"/>
      <rect id="Rect치ngulo_2" data-name="Rect치ngulo 2" width="3.552" height="19.854" transform="translate(322.979 59.362)" fill="#3d6146"/>
      <path id="Trazado_85" data-name="Trazado 85" d="M435.063,795.073a4.406,4.406,0,0,0-2.034-1.543,6.558,6.558,0,0,0-2.474-.494,6.8,6.8,0,0,0-2.791.549,6.27,6.27,0,0,0-2.163,1.562,6.378,6.378,0,0,0-1.4,2.288,7.8,7.8,0,0,0-.494,2.862,8.487,8.487,0,0,0,.483,2.952,7.1,7.1,0,0,0,1.335,2.327,6.353,6.353,0,0,0,4.888,2.023,5.969,5.969,0,0,0,2.84-.655,5.11,5.11,0,0,0,1.993-1.63l2.813,1.991a8.977,8.977,0,0,1-3.2,2.55,10.747,10.747,0,0,1-4.47.931,10.533,10.533,0,0,1-4.268-.822,9.772,9.772,0,0,1-3.353-2.124,10.1,10.1,0,0,1-2.176-3.293,11.4,11.4,0,0,1-.773-4.249,11.081,11.081,0,0,1,.808-4.32,10.405,10.405,0,0,1,2.264-3.263,10.243,10.243,0,0,1,3.43-2.059,11.927,11.927,0,0,1,4.23-.732,11.648,11.648,0,0,1,1.993.2,10.385,10.385,0,0,1,1.991.546,9.553,9.553,0,0,1,1.786.953,5.654,5.654,0,0,1,1.444,1.324Z" transform="translate(-89.882 -731.065)" fill="#3d6146"/>
      <path id="Trazado_86" data-name="Trazado 86" d="M434.906,790.107h3.072l8.539,19.857h-4.028l-1.857-4.59h-8.61l-1.783,4.59H426.3Zm4.489,12.274-3.042-8.058-3.113,8.058Z" transform="translate(-78.668 -730.747)" fill="#3d6146"/>
      <path id="Trazado_87" data-name="Trazado 87" d="M443.042,801.35l-7.468-11.242h4.3l5,8.359,5.034-8.359h4.13l-7.468,11.242v8.612h-3.524Z" transform="translate(-62.625 -730.746)" fill="#3d6146"/>
      <path id="Trazado_88" data-name="Trazado 88" d="M460.12,795.073a4.272,4.272,0,0,0-2.034-1.543,6.281,6.281,0,0,0-2.417-.494,6.974,6.974,0,0,0-2.848.549,6.156,6.156,0,0,0-2.133,1.562,6.016,6.016,0,0,0-1.425,2.288,8.477,8.477,0,0,0-.492,2.862,9.178,9.178,0,0,0,.481,2.952,7.059,7.059,0,0,0,1.338,2.327,8.106,8.106,0,0,0,2.146,1.5,7.348,7.348,0,0,0,2.769.524,5.855,5.855,0,0,0,2.81-.655,4.851,4.851,0,0,0,1.993-1.63l2.81,1.991a8.58,8.58,0,0,1-3.17,2.55,10.641,10.641,0,0,1-4.467.931,10.493,10.493,0,0,1-4.265-.822,9.145,9.145,0,0,1-3.331-2.124,9.741,9.741,0,0,1-2.2-3.293,11.351,11.351,0,0,1-.778-4.249,11.032,11.032,0,0,1,.811-4.32,9.469,9.469,0,0,1,2.264-3.263,9.955,9.955,0,0,1,3.43-2.059,11.874,11.874,0,0,1,4.257-.732,10.954,10.954,0,0,1,1.933.2,9.917,9.917,0,0,1,2,.546,9.213,9.213,0,0,1,1.794.953,4.9,4.9,0,0,1,1.434,1.324Z" transform="translate(-46.472 -731.065)" fill="#3d6146"/>
      <path id="Trazado_89" data-name="Trazado 89" d="M452.384,790.107H465.5V793.2h-9.587v5.039h9.085v2.948h-9.085V806.8H466v3.164H452.384Z" transform="translate(-33.533 -730.746)" fill="#3d6146"/>
      <path id="Trazado_90" data-name="Trazado 90" d="M458.638,790.107h4.7l9.175,14.863h.1V790.107h3.524v19.854h-4.488L462.2,794.617h-.041v15.345h-3.526Z" transform="translate(-22.711 -730.746)" fill="#3d6146"/>
      <path id="Trazado_91" data-name="Trazado 91" d="M477.671,794.569a3.94,3.94,0,0,0-1.562-1.226,4.911,4.911,0,0,0-2.048-.467,4.789,4.789,0,0,0-1.237.15,3.51,3.51,0,0,0-1.114.481,2.591,2.591,0,0,0-.846.822,2.262,2.262,0,0,0-.3,1.245,2,2,0,0,0,.273,1.144,2.911,2.911,0,0,0,.762.83,4.5,4.5,0,0,0,1.207.568c.475.188.988.344,1.532.53.65.188,1.283.426,1.982.686a7.175,7.175,0,0,1,1.849,1.026,5.331,5.331,0,0,1,1.425,1.628,5.225,5.225,0,0,1,.535,2.425,6.46,6.46,0,0,1-.568,2.78,5.728,5.728,0,0,1-1.573,1.982,6.655,6.655,0,0,1-2.327,1.193,9.531,9.531,0,0,1-2.772.418,10.237,10.237,0,0,1-3.776-.724,7.19,7.19,0,0,1-3.02-2.146l2.52-2.329a4.741,4.741,0,0,0,1.961,1.573,5.086,5.086,0,0,0,2.406.628,7.5,7.5,0,0,0,1.27-.18,2.89,2.89,0,0,0,1.128-.511,2.343,2.343,0,0,0,.855-.934,2.757,2.757,0,0,0,.328-1.332,2.19,2.19,0,0,0-.4-1.3,3.171,3.171,0,0,0-.983-.909,6.656,6.656,0,0,0-1.409-.653c-.606-.172-1.174-.382-1.767-.6a13.606,13.606,0,0,1-1.8-.663,6.162,6.162,0,0,1-1.622-1.03,6.1,6.1,0,0,1-1.185-1.592,5.581,5.581,0,0,1-.4-2.321,5.358,5.358,0,0,1,.6-2.61,5.771,5.771,0,0,1,1.679-1.824,7.746,7.746,0,0,1,2.307-1.048,9.856,9.856,0,0,1,2.671-.355,9.991,9.991,0,0,1,3.056.521,7.515,7.515,0,0,1,2.7,1.606Z" transform="translate(-9.814 -731.063)" fill="#3d6146"/>
      <path id="Trazado_92" data-name="Trazado 92" d="M472.167,800.295a10.446,10.446,0,0,1,3.015-7.583,10.23,10.23,0,0,1,3.394-2.056,11.871,11.871,0,0,1,4.249-.732,12.174,12.174,0,0,1,4.276.732,10.164,10.164,0,0,1,3.361,2.056,9.338,9.338,0,0,1,2.231,3.263,11.292,11.292,0,0,1,.792,4.32,11.134,11.134,0,0,1-.792,4.249,9.648,9.648,0,0,1-2.231,3.3,9.8,9.8,0,0,1-3.361,2.119,10.609,10.609,0,0,1-4.276.825,10.352,10.352,0,0,1-4.249-.825,9.864,9.864,0,0,1-3.394-2.119,11,11,0,0,1-2.187-3.3,10.56,10.56,0,0,1-.827-4.249m3.88,0a7.52,7.52,0,0,0,.494,2.916,7.168,7.168,0,0,0,1.365,2.329,7.6,7.6,0,0,0,2.179,1.524,7.241,7.241,0,0,0,2.761.532,7.561,7.561,0,0,0,2.769-.532,7.375,7.375,0,0,0,2.133-1.524,6.413,6.413,0,0,0,1.423-2.329,8.838,8.838,0,0,0,.492-2.916,8.5,8.5,0,0,0-.492-2.864,6.7,6.7,0,0,0-3.533-3.847,6.762,6.762,0,0,0-2.791-.546,6.644,6.644,0,0,0-2.783.546,6.116,6.116,0,0,0-2.168,1.562,6.811,6.811,0,0,0-1.354,2.286,7.242,7.242,0,0,0-.494,2.864" transform="translate(0.703 -731.063)" fill="#3d6146"/>
      <path id="Trazado_93" data-name="Trazado 93" d="M492.268,794.569a4.124,4.124,0,0,0-1.562-1.226,5.139,5.139,0,0,0-2.051-.467,4.515,4.515,0,0,0-1.237.15,4.146,4.146,0,0,0-1.15.481,2.874,2.874,0,0,0-.811.822,2.262,2.262,0,0,0-.3,1.245,1.979,1.979,0,0,0,.276,1.144,2.424,2.424,0,0,0,.762.83,4.5,4.5,0,0,0,1.2.568c.434.188.975.344,1.54.53.606.188,1.283.426,1.972.686a8.057,8.057,0,0,1,1.86,1.026,6.332,6.332,0,0,1,1.428,1.628,5.192,5.192,0,0,1,.535,2.425,5.971,5.971,0,0,1-.6,2.78,5,5,0,0,1-1.578,1.982,6.29,6.29,0,0,1-2.288,1.193,9.569,9.569,0,0,1-2.769.418,10.213,10.213,0,0,1-3.774-.724,7.148,7.148,0,0,1-3.023-2.146l2.518-2.329a4.607,4.607,0,0,0,1.961,1.573,5.068,5.068,0,0,0,2.362.628,6.408,6.408,0,0,0,1.259-.18,2.911,2.911,0,0,0,1.185-.511,3,3,0,0,0,.819-.934,2.435,2.435,0,0,0,.344-1.332,2.2,2.2,0,0,0-.377-1.3,3.183,3.183,0,0,0-.986-.909,6.355,6.355,0,0,0-1.469-.653c-.543-.172-1.114-.382-1.761-.6-.576-.175-1.152-.4-1.786-.663a6.524,6.524,0,0,1-1.584-1.03,5.005,5.005,0,0,1-1.185-1.592,5.535,5.535,0,0,1-.462-2.321,4.959,4.959,0,0,1,.664-2.61,5.775,5.775,0,0,1,1.649-1.824,7.386,7.386,0,0,1,2.332-1.048,9.677,9.677,0,0,1,2.616-.355,10.427,10.427,0,0,1,3.091.521,7.264,7.264,0,0,1,2.679,1.606Z" transform="translate(15.45 -731.063)" fill="#3d6146"/>
    </g>
  </g>
</svg>
