<svg id="Personas" xmlns="http://www.w3.org/2000/svg" width="451.424" height="45.778" viewBox="0 0 451.424 45.778">
  <path id="Trazado_94" data-name="Trazado 94" d="M75.86,603.685a14.449,14.449,0,0,0-14.442,14.442v11.851H90.343V618.127A14.459,14.459,0,0,0,75.86,603.685Zm0-19.485a8.678,8.678,0,1,0,8.7,8.7A8.686,8.686,0,0,0,75.86,584.2Z" transform="translate(-61.418 -584.201)" fill="#acc95b"/>
  <path id="Trazado_95" data-name="Trazado 95" d="M96.4,603.685a14.449,14.449,0,0,0-14.442,14.442v11.851h28.925V618.127A14.459,14.459,0,0,0,96.4,603.685Zm0-19.485a8.678,8.678,0,1,0,8.7,8.7A8.686,8.686,0,0,0,96.4,584.2Z" transform="translate(-43.453 -584.201)" fill="#799e4e"/>
  <path id="Trazado_96" data-name="Trazado 96" d="M116.942,603.685A14.449,14.449,0,0,0,102.5,618.127v11.851h28.925V618.127A14.459,14.459,0,0,0,116.942,603.685Zm0-19.485a8.678,8.678,0,1,0,8.7,8.7A8.686,8.686,0,0,0,116.942,584.2Z" transform="translate(-25.488 -584.201)" fill="#799e4e"/>
  <path id="Trazado_97" data-name="Trazado 97" d="M137.483,603.685a14.449,14.449,0,0,0-14.442,14.442v11.851h28.925V618.127A14.459,14.459,0,0,0,137.483,603.685Zm0-19.485a8.678,8.678,0,1,0,8.7,8.7A8.686,8.686,0,0,0,137.483,584.2Z" transform="translate(-7.523 -584.201)" fill="#acc95b"/>
  <path id="Trazado_98" data-name="Trazado 98" d="M158.024,603.685a14.449,14.449,0,0,0-14.442,14.442v11.851h28.925V618.127A14.459,14.459,0,0,0,158.024,603.685Zm0-19.485a8.678,8.678,0,1,0,8.7,8.7A8.686,8.686,0,0,0,158.024,584.2Z" transform="translate(10.442 -584.201)" fill="#acc95b"/>
  <path id="Trazado_99" data-name="Trazado 99" d="M178.565,603.685a14.449,14.449,0,0,0-14.442,14.442v11.851h28.925V618.127A14.459,14.459,0,0,0,178.565,603.685Zm0-19.485a8.678,8.678,0,1,0,8.7,8.7A8.686,8.686,0,0,0,178.565,584.2Z" transform="translate(28.407 -584.201)" fill="#799e4e"/>
  <path id="Trazado_100" data-name="Trazado 100" d="M198.536,603.685a14.448,14.448,0,0,0-14.44,14.442v11.851h28.923V618.127A14.457,14.457,0,0,0,198.536,603.685Zm0-19.485a8.678,8.678,0,1,0,8.7,8.7A8.685,8.685,0,0,0,198.536,584.2Z" transform="translate(45.875 -584.201)" fill="#acc95b"/>
  <path id="Trazado_101" data-name="Trazado 101" d="M219.077,603.685a14.448,14.448,0,0,0-14.44,14.442v11.851H233.56V618.127A14.457,14.457,0,0,0,219.077,603.685Zm0-19.485a8.678,8.678,0,1,0,8.7,8.7A8.684,8.684,0,0,0,219.077,584.2Z" transform="translate(63.84 -584.201)" fill="#799e4e"/>
  <path id="Trazado_102" data-name="Trazado 102" d="M239.618,603.685a14.448,14.448,0,0,0-14.44,14.442v11.851H254.1V618.127A14.457,14.457,0,0,0,239.618,603.685Zm0-19.485a8.678,8.678,0,1,0,8.7,8.7A8.684,8.684,0,0,0,239.618,584.2Z" transform="translate(81.805 -584.201)" fill="#3d6447"/>
  <path id="Trazado_103" data-name="Trazado 103" d="M260.159,603.685a14.448,14.448,0,0,0-14.44,14.442v11.851h28.923V618.127A14.458,14.458,0,0,0,260.159,603.685Zm0-19.485a8.678,8.678,0,1,0,8.7,8.7A8.685,8.685,0,0,0,260.159,584.2Z" transform="translate(99.77 -584.201)" fill="#3d6447"/>
  <path id="Trazado_104" data-name="Trazado 104" d="M280.7,603.685a14.448,14.448,0,0,0-14.44,14.442v11.851h28.923V618.127A14.457,14.457,0,0,0,280.7,603.685Zm0-19.485a8.678,8.678,0,1,0,8.7,8.7A8.685,8.685,0,0,0,280.7,584.2Z" transform="translate(117.735 -584.201)" fill="#799e4e"/>
  <path id="Trazado_105" data-name="Trazado 105" d="M301.241,603.685a14.448,14.448,0,0,0-14.44,14.442v11.851h28.923V618.127A14.458,14.458,0,0,0,301.241,603.685Zm0-19.485a8.678,8.678,0,1,0,8.7,8.7A8.685,8.685,0,0,0,301.241,584.2Z" transform="translate(135.7 -584.201)" fill="#3d6447"/>
</svg>
